Jinko-Bold.ufo
<glyph name="exclam" format="1">
  <advance width="637"/>
  <unicode hex="0021"/>
  <outline>
    <contour>
      <point x="334" y="-22" type="curve" smooth="yes"/>
      <point x="448" y="-22"/>
      <point x="541" y="72"/>
      <point x="541" y="184" type="curve" smooth="yes"/>
      <point x="541" y="297"/>
      <point x="448" y="390"/>
      <point x="334" y="390" type="curve" smooth="yes"/>
      <point x="222" y="390"/>
      <point x="128" y="297"/>
      <point x="128" y="184" type="curve" smooth="yes"/>
      <point x="128" y="72"/>
      <point x="222" y="-22"/>
    </contour>
    <contour>
      <point x="236" y="531" type="line"/>
      <point x="434" y="531" type="line"/>
      <point x="527" y="1481" type="line"/>
      <point x="138" y="1481" type="line"/>
    </contour>
  </outline>
</glyph>
<glyph name="quotedbl" format="1">
  <advance width="941"/>
  <unicode hex="0022"/>
  <outline>
    <contour>
      <point x="167" y="969" type="line"/>
      <point x="385" y="969" type="line"/>
      <point x="431" y="1481" type="line"/>
      <point x="120" y="1481" type="line"/>
    </contour>
    <contour>
      <point x="561" y="969" type="line"/>
      <point x="779" y="969" type="line"/>
      <point x="825" y="1481" type="line"/>
      <point x="515" y="1481" type="line"/>
    </contour>
  </outline>
</glyph>
<glyph name="percent" format="1">
  <advance width="2136"/>
  <unicode hex="0025"/>
  <outline>
    <contour>
      <point x="485" y="841" type="curve" smooth="yes"/>
      <point x="386" y="841"/>
      <point x="339" y="948"/>
      <point x="339" y="1057" type="curve" smooth="yes"/>
      <point x="339" y="1170"/>
      <point x="391" y="1286"/>
      <point x="485" y="1286" type="curve" smooth="yes"/>
      <point x="582" y="1286"/>
      <point x="629" y="1180"/>
      <point x="629" y="1073" type="curve" smooth="yes"/>
      <point x="629" y="959"/>
      <point x="577" y="841"/>
    </contour>
    <contour>
      <point x="485" y="641" type="curve" smooth="yes"/>
      <point x="736" y="641"/>
      <point x="869" y="856"/>
      <point x="869" y="1071" type="curve" smooth="yes"/>
      <point x="869" y="1281"/>
      <point x="744" y="1484"/>
      <point x="485" y="1485" type="curve"/>
      <point x="225" y="1482"/>
      <point x="95" y="1272"/>
      <point x="95" y="1060" type="curve" smooth="yes"/>
      <point x="95" y="848"/>
      <point x="226" y="641"/>
    </contour>
    <contour>
      <point x="551" y="0" type="line"/>
      <point x="808" y="0" type="line"/>
      <point x="1585" y="1481" type="line"/>
      <point x="1328" y="1481" type="line"/>
    </contour>
    <contour>
      <point x="1652" y="198" type="curve" smooth="yes"/>
      <point x="1555" y="198"/>
      <point x="1509" y="304"/>
      <point x="1509" y="411" type="curve" smooth="yes"/>
      <point x="1509" y="524"/>
      <point x="1559" y="642"/>
      <point x="1649" y="645" type="curve"/>
      <point x="1746" y="645"/>
      <point x="1794" y="534"/>
      <point x="1794" y="424" type="curve" smooth="yes"/>
      <point x="1794" y="311"/>
      <point x="1746" y="198"/>
    </contour>
    <contour>
      <point x="1652" y="-3" type="curve" smooth="yes"/>
      <point x="1903" y="-3"/>
      <point x="2035" y="214"/>
      <point x="2035" y="429" type="curve" smooth="yes"/>
      <point x="2035" y="639"/>
      <point x="1911" y="841"/>
      <point x="1652" y="841" type="curve"/>
      <point x="1393" y="838"/>
      <point x="1263" y="629"/>
      <point x="1263" y="417" type="curve" smooth="yes"/>
      <point x="1263" y="205"/>
      <point x="1393" y="-3"/>
    </contour>
  </outline>
</glyph>
<glyph name="ampersand" format="1">
  <advance width="1594"/>
  <unicode hex="0026"/>
  <outline>
    <contour>
      <point x="643" y="-24" type="curve" smooth="yes"/>
      <point x="804" y="-24"/>
      <point x="945" y="22"/>
      <point x="1081" y="107" type="curve"/>
      <point x="1207" y="0" type="line"/>
      <point x="1684" y="0" type="line"/>
      <point x="1684" y="0"/>
      <point x="1363" y="280"/>
      <point x="1312" y="328" type="curve"/>
      <point x="1449" y="456"/>
      <point x="1468" y="616"/>
      <point x="1483" y="759" type="curve"/>
      <point x="1133" y="785" type="line"/>
      <point x="1133" y="744"/>
      <point x="1131" y="605"/>
      <point x="1098" y="527" type="curve"/>
      <point x="1003" y="622"/>
      <point x="909" y="718"/>
      <point x="815" y="815" type="curve"/>
      <point x="1041" y="894"/>
      <point x="1129" y="1025"/>
      <point x="1129" y="1177" type="curve" smooth="yes"/>
      <point x="1129" y="1359"/>
      <point x="970" y="1504"/>
      <point x="664" y="1504" type="curve" smooth="yes"/>
      <point x="311" y="1504"/>
      <point x="182" y="1321"/>
      <point x="182" y="1154" type="curve" smooth="yes"/>
      <point x="182" y="1013"/>
      <point x="259" y="925"/>
      <point x="348" y="843" type="curve"/>
      <point x="203" y="764"/>
      <point x="78" y="638"/>
      <point x="78" y="437" type="curve" smooth="yes"/>
      <point x="78" y="175"/>
      <point x="291" y="-24"/>
    </contour>
    <contour>
      <point x="658" y="236" type="curve"/>
      <point x="572" y="243"/>
      <point x="452" y="327"/>
      <point x="452" y="479" type="curve" smooth="yes"/>
      <point x="452" y="532"/>
      <point x="474" y="618"/>
      <point x="525" y="663" type="curve"/>
      <point x="651" y="537"/>
      <point x="777" y="412"/>
      <point x="904" y="290" type="curve"/>
      <point x="827" y="245"/>
      <point x="761" y="226"/>
    </contour>
    <contour>
      <point x="668" y="963" type="curve"/>
      <point x="604" y="1025"/>
      <point x="545" y="1093"/>
      <point x="545" y="1159" type="curve" smooth="yes"/>
      <point x="545" y="1261"/>
      <point x="617" y="1279"/>
      <point x="648" y="1279" type="curve" smooth="yes"/>
      <point x="683" y="1279"/>
      <point x="769" y="1264"/>
      <point x="769" y="1144" type="curve" smooth="yes"/>
      <point x="769" y="1080"/>
      <point x="742" y="1024"/>
    </contour>
  </outline>
</glyph>
<glyph name="quotesingle" format="1">
  <advance width="561"/>
  <unicode hex="0027"/>
  <outline>
    <contour>
      <point x="171" y="839" type="line"/>
      <point x="388" y="839" type="line"/>
      <point x="437" y="1481" type="line"/>
      <point x="128" y="1481" type="line"/>
    </contour>
  </outline>
</glyph>
<glyph name="asterisk" format="1">
  <advance width="1100"/>
  <unicode hex="002A"/>
  <outline>
    <contour>
      <point x="508" y="595" type="curve"/>
      <point x="564" y="595"/>
      <point x="618" y="622"/>
      <point x="633" y="673" type="curve"/>
      <point x="633" y="763"/>
      <point x="589" y="876"/>
      <point x="573" y="966" type="curve"/>
      <point x="634" y="913"/>
      <point x="705" y="820"/>
      <point x="774" y="778" type="curve"/>
      <point x="794" y="765"/>
      <point x="816" y="758"/>
      <point x="838" y="756" type="curve"/>
      <point x="884" y="769"/>
      <point x="926" y="816"/>
      <point x="937" y="867" type="curve"/>
      <point x="928" y="989"/>
      <point x="724" y="992"/>
      <point x="612" y="1043" type="curve"/>
      <point x="723" y="1092"/>
      <point x="932" y="1101"/>
      <point x="937" y="1220" type="curve"/>
      <point x="926" y="1269"/>
      <point x="885" y="1318"/>
      <point x="838" y="1331" type="curve"/>
      <point x="750" y="1325"/>
      <point x="662" y="1200"/>
      <point x="589" y="1131" type="curve" smooth="yes"/>
      <point x="583" y="1126"/>
      <point x="575" y="1121"/>
      <point x="571" y="1118" type="curve"/>
      <point x="586" y="1203"/>
      <point x="632" y="1304"/>
      <point x="632" y="1389" type="curve" smooth="yes"/>
      <point x="632" y="1448"/>
      <point x="591" y="1483"/>
      <point x="550" y="1492" type="curve"/>
      <point x="494" y="1492"/>
      <point x="443" y="1465"/>
      <point x="428" y="1414" type="curve"/>
      <point x="428" y="1320"/>
      <point x="476" y="1213"/>
      <point x="487" y="1118" type="curve"/>
      <point x="423" y="1169"/>
      <point x="354" y="1264"/>
      <point x="284" y="1307" type="curve" smooth="yes"/>
      <point x="264" y="1320"/>
      <point x="242" y="1329"/>
      <point x="220" y="1331" type="curve"/>
      <point x="173" y="1318"/>
      <point x="133" y="1269"/>
      <point x="122" y="1220" type="curve"/>
      <point x="127" y="1100"/>
      <point x="330" y="1092"/>
      <point x="446" y="1043" type="curve"/>
      <point x="333" y="995"/>
      <point x="131" y="988"/>
      <point x="122" y="867" type="curve"/>
      <point x="133" y="816"/>
      <point x="173" y="769"/>
      <point x="220" y="756" type="curve"/>
      <point x="303" y="762"/>
      <point x="396" y="883"/>
      <point x="469" y="953" type="curve" smooth="yes"/>
      <point x="475" y="958"/>
      <point x="482" y="963"/>
      <point x="485" y="966" type="curve"/>
      <point x="472" y="884"/>
      <point x="427" y="782"/>
      <point x="427" y="699" type="curve" smooth="yes"/>
      <point x="427" y="638"/>
      <point x="467" y="604"/>
    </contour>
  </outline>
</glyph>
<glyph name="plus" format="1">
  <advance width="1498"/>
  <unicode hex="002B"/>
  <outline>
    <contour>
      <point x="626" y="9" type="line"/>
      <point x="876" y="9" type="line"/>
      <point x="876" y="457" type="line"/>
      <point x="1348" y="457" type="line"/>
      <point x="1348" y="694" type="line"/>
      <point x="876" y="694" type="line"/>
      <point x="876" y="1141" type="line"/>
      <point x="626" y="1141" type="line"/>
      <point x="626" y="694" type="line"/>
      <point x="153" y="694" type="line"/>
      <point x="153" y="457" type="line"/>
      <point x="626" y="457" type="line"/>
    </contour>
  </outline>
</glyph>
<glyph name="comma" format="1">
  <advance width="551"/>
  <unicode hex="002C"/>
  <outline>
    <contour>
      <point x="105" y="-255" type="line"/>
      <point x="276" y="-255" type="line"/>
      <point x="502" y="318" type="line"/>
      <point x="165" y="318" type="line"/>
    </contour>
  </outline>
</glyph>
<glyph name="hyphen" format="1">
  <advance width="839"/>
  <unicode hex="002D"/>
  <outline>
    <contour>
      <point x="95" y="462" type="line"/>
      <point x="745" y="462" type="line"/>
      <point x="745" y="725" type="line"/>
      <point x="95" y="725" type="line"/>
    </contour>
  </outline>
</glyph>
<glyph name="period" format="1">
  <advance width="680"/>
  <unicode hex="002E"/>
  <outline>
    <contour>
      <point x="347" y="-22" type="curve" smooth="yes"/>
      <point x="461" y="-22"/>
      <point x="554" y="72"/>
      <point x="554" y="184" type="curve" smooth="yes"/>
      <point x="554" y="297"/>
      <point x="461" y="390"/>
      <point x="347" y="390" type="curve" smooth="yes"/>
      <point x="235" y="390"/>
      <point x="141" y="297"/>
      <point x="141" y="184" type="curve" smooth="yes"/>
      <point x="141" y="72"/>
      <point x="235" y="-22"/>
    </contour>
  </outline>
</glyph>
<glyph name="slash" format="1">
  <advance width="1124"/>
  <unicode hex="002F"/>
  <outline>
    <contour>
      <point x="133" y="0" type="line"/>
      <point x="417" y="0" type="line"/>
      <point x="961" y="1481" type="line"/>
      <point x="674" y="1481" type="line"/>
    </contour>
  </outline>
</glyph>
<glyph name="zero" format="1">
  <advance width="1349"/>
  <unicode hex="0030"/>
  <outline>
    <contour>
      <point x="674" y="227" type="curve" smooth="yes"/>
      <point x="501" y="227"/>
      <point x="478" y="409"/>
      <point x="478" y="741" type="curve" smooth="yes"/>
      <point x="478" y="1061"/>
      <point x="506" y="1223"/>
      <point x="674" y="1223" type="curve" smooth="yes"/>
      <point x="841" y="1223"/>
      <point x="869" y="1061"/>
      <point x="869" y="741" type="curve" smooth="yes"/>
      <point x="869" y="409"/>
      <point x="847" y="227"/>
    </contour>
    <contour>
      <point x="674" y="-24" type="curve" smooth="yes"/>
      <point x="1084" y="-24"/>
      <point x="1250" y="251"/>
      <point x="1250" y="701" type="curve" smooth="yes"/>
      <point x="1250" y="1153"/>
      <point x="1117" y="1503"/>
      <point x="674" y="1503" type="curve" smooth="yes"/>
      <point x="259" y="1503"/>
      <point x="99" y="1211"/>
      <point x="99" y="779" type="curve" smooth="yes"/>
      <point x="99" y="313"/>
      <point x="233" y="-24"/>
    </contour>
  </outline>
</glyph>
<glyph name="one" format="1">
  <advance width="1102"/>
  <unicode hex="0031"/>
  <outline>
    <contour>
      <point x="160" y="0" type="line"/>
      <point x="1034" y="0" type="line"/>
      <point x="1034" y="275" type="line"/>
      <point x="788" y="275" type="line"/>
      <point x="788" y="1482" type="line"/>
      <point x="673" y="1483"/>
      <point x="556" y="1481"/>
      <point x="441" y="1482" type="curve"/>
      <point x="411" y="1361"/>
      <point x="334" y="1315"/>
      <point x="160" y="1297" type="curve"/>
      <point x="160" y="1068" type="line"/>
      <point x="417" y="1116" type="line"/>
      <point x="417" y="275" type="line"/>
      <point x="160" y="275" type="line"/>
    </contour>
  </outline>
</glyph>
<glyph name="two" format="1">
  <advance width="1253"/>
  <unicode hex="0032"/>
  <outline>
    <contour>
      <point x="114" y="0" type="line"/>
      <point x="1185" y="0" type="line"/>
      <point x="1185" y="284" type="line"/>
      <point x="602" y="284" type="line"/>
      <point x="801" y="439"/>
      <point x="1139" y="757"/>
      <point x="1139" y="1054" type="curve" smooth="yes"/>
      <point x="1139" y="1328"/>
      <point x="947" y="1503"/>
      <point x="602" y="1503" type="curve" smooth="yes"/>
      <point x="433" y="1503"/>
      <point x="214" y="1434"/>
      <point x="138" y="1368" type="curve"/>
      <point x="214" y="1101" type="line"/>
      <point x="270" y="1131"/>
      <point x="426" y="1199"/>
      <point x="559" y="1199" type="curve" smooth="yes"/>
      <point x="666" y="1199"/>
      <point x="755" y="1156"/>
      <point x="755" y="1011" type="curve" smooth="yes"/>
      <point x="755" y="782"/>
      <point x="298" y="391"/>
      <point x="114" y="234" type="curve"/>
    </contour>
  </outline>
</glyph>
<glyph name="three" format="1">
  <advance width="1222"/>
  <unicode hex="0033"/>
  <outline>
    <contour>
      <point x="565" y="-24" type="curve" smooth="yes"/>
      <point x="950" y="-24"/>
      <point x="1168" y="154"/>
      <point x="1168" y="433" type="curve" smooth="yes"/>
      <point x="1168" y="620"/>
      <point x="1022" y="739"/>
      <point x="875" y="774" type="curve"/>
      <point x="996" y="816"/>
      <point x="1114" y="918"/>
      <point x="1114" y="1106" type="curve" smooth="yes"/>
      <point x="1114.0" y="1316.35767859"/>
      <point x="943.35536184" y="1504.0"/>
      <point x="569" y="1504" type="curve" smooth="yes"/>
      <point x="392" y="1504"/>
      <point x="194" y="1440"/>
      <point x="99" y="1374" type="curve"/>
      <point x="99" y="1068" type="line"/>
      <point x="174" y="1068" type="line"/>
      <point x="174" y="1068"/>
      <point x="281" y="1214"/>
      <point x="514" y="1214" type="curve" smooth="yes"/>
      <point x="599" y="1214"/>
      <point x="739" y="1183"/>
      <point x="739" y="1061" type="curve" smooth="yes"/>
      <point x="739" y="921"/>
      <point x="626" y="886"/>
      <point x="457" y="886" type="curve" smooth="yes"/>
      <point x="398" y="886" type="line"/>
      <point x="398" y="658" type="line"/>
      <point x="536" y="658" type="line" smooth="yes"/>
      <point x="717" y="658"/>
      <point x="789" y="591"/>
      <point x="789" y="465" type="curve" smooth="yes"/>
      <point x="789" y="305"/>
      <point x="621" y="266"/>
      <point x="488" y="266" type="curve" smooth="yes"/>
      <point x="255" y="266"/>
      <point x="171" y="411"/>
      <point x="171" y="411" type="curve"/>
      <point x="99" y="411" type="line"/>
      <point x="99" y="97" type="line"/>
      <point x="198" y="26"/>
      <point x="338" y="-24"/>
    </contour>
  </outline>
</glyph>
<glyph name="four" format="1">
  <advance width="1294"/>
  <unicode hex="0034"/>
  <outline>
    <contour>
      <point x="714" y="0" type="line"/>
      <point x="1085" y="0" type="line"/>
      <point x="1085" y="253" type="line"/>
      <point x="1254" y="253" type="line"/>
      <point x="1254" y="513" type="line"/>
      <point x="1085" y="513" type="line"/>
      <point x="1085" y="1481" type="line"/>
      <point x="561" y="1481" type="line"/>
      <point x="42" y="518" type="line"/>
      <point x="42" y="253" type="line"/>
      <point x="714" y="253" type="line"/>
    </contour>
    <contour>
      <point x="377" y="513" type="line"/>
      <point x="714" y="1164" type="line"/>
      <point x="714" y="513" type="line"/>
    </contour>
  </outline>
</glyph>
<glyph name="five" format="1">
  <advance width="1230"/>
  <unicode hex="0035"/>
  <outline>
    <contour>
      <point x="572" y="-24" type="curve" smooth="yes"/>
      <point x="937" y="-24"/>
      <point x="1179" y="140"/>
      <point x="1179" y="489" type="curve" smooth="yes"/>
      <point x="1179" y="835"/>
      <point x="842" y="926"/>
      <point x="648" y="944" type="curve" smooth="yes"/>
      <point x="604" y="948"/>
      <point x="481" y="958"/>
      <point x="481" y="959" type="curve" smooth="yes"/>
      <point x="481" y="1197" type="line"/>
      <point x="1063" y="1197" type="line"/>
      <point x="1063" y="1481" type="line"/>
      <point x="123" y="1481" type="line"/>
      <point x="123" y="740" type="line"/>
      <point x="123" y="740"/>
      <point x="393" y="723"/>
      <point x="490" y="718" type="curve" smooth="yes"/>
      <point x="674" y="708"/>
      <point x="799" y="639"/>
      <point x="799" y="483" type="curve" smooth="yes"/>
      <point x="799" y="334"/>
      <point x="701" y="271"/>
      <point x="522" y="271" type="curve" smooth="yes"/>
      <point x="284" y="271"/>
      <point x="161" y="411"/>
      <point x="161" y="411" type="curve"/>
      <point x="96" y="411" type="line"/>
      <point x="96" y="120" type="line"/>
      <point x="191" y="32"/>
      <point x="355" y="-24"/>
    </contour>
  </outline>
</glyph>
<glyph name="six" format="1">
  <advance width="1251"/>
  <unicode hex="0036"/>
  <outline>
    <contour>
      <point x="647" y="-24" type="curve" smooth="yes"/>
      <point x="978" y="-24"/>
      <point x="1193" y="173"/>
      <point x="1193" y="496" type="curve" smooth="yes"/>
      <point x="1193" y="802"/>
      <point x="1035" y="959"/>
      <point x="782" y="959" type="curve" smooth="yes"/>
      <point x="687" y="959"/>
      <point x="588" y="915"/>
      <point x="518" y="874" type="curve"/>
      <point x="584" y="1112"/>
      <point x="780" y="1194"/>
      <point x="1058" y="1220" type="curve"/>
      <point x="999" y="1482" type="line"/>
      <point x="405" y="1448"/>
      <point x="97" y="1139"/>
      <point x="97" y="557" type="curve" smooth="yes"/>
      <point x="97" y="186"/>
      <point x="313" y="-24"/>
    </contour>
    <contour>
      <point x="631" y="224" type="curve" smooth="yes"/>
      <point x="508" y="224"/>
      <point x="455" y="341"/>
      <point x="455" y="477" type="curve" smooth="yes"/>
      <point x="455" y="604"/>
      <point x="531" y="706"/>
      <point x="635" y="706" type="curve" smooth="yes"/>
      <point x="738" y="706"/>
      <point x="822" y="644"/>
      <point x="822" y="483" type="curve" smooth="yes"/>
      <point x="822" y="329"/>
      <point x="766" y="224"/>
    </contour>
  </outline>
</glyph>
<glyph name="seven" format="1">
  <advance width="1226"/>
  <unicode hex="0037"/>
  <outline>
    <contour>
      <point x="201" y="0" type="line"/>
      <point x="627" y="0" type="line"/>
      <point x="1161" y="1216" type="line"/>
      <point x="1161" y="1481" type="line"/>
      <point x="91" y="1481" type="line"/>
      <point x="91" y="1064" type="line"/>
      <point x="316" y="1064" type="line"/>
      <point x="316" y="1214" type="line"/>
      <point x="751" y="1214" type="line"/>
    </contour>
  </outline>
</glyph>
<glyph name="eight" format="1">
  <advance width="1319"/>
  <unicode hex="0038"/>
  <outline>
    <contour>
      <point x="659" y="-26" type="curve" smooth="yes"/>
      <point x="1023" y="-26"/>
      <point x="1240" y="161"/>
      <point x="1240" y="420" type="curve" smooth="yes"/>
      <point x="1240" y="586"/>
      <point x="1162" y="716"/>
      <point x="983" y="795" type="curve"/>
      <point x="1143" y="868"/>
      <point x="1201" y="1045"/>
      <point x="1198" y="1154" type="curve"/>
      <point x="1182" y="1352"/>
      <point x="1008" y="1506"/>
      <point x="661" y="1506" type="curve" smooth="yes"/>
      <point x="309" y="1506"/>
      <point x="116" y="1312"/>
      <point x="116" y="1095" type="curve" smooth="yes"/>
      <point x="116" y="988"/>
      <point x="168" y="828"/>
      <point x="328" y="746" type="curve"/>
      <point x="165" y="672"/>
      <point x="79" y="571"/>
      <point x="79" y="411" type="curve" smooth="yes"/>
      <point x="79" y="164"/>
      <point x="272" y="-26"/>
    </contour>
    <contour>
      <point x="674" y="241" type="curve" smooth="yes"/>
      <point x="543" y="241"/>
      <point x="449" y="322"/>
      <point x="449" y="450" type="curve" smooth="yes"/>
      <point x="449" y="544"/>
      <point x="513" y="619"/>
      <point x="574" y="649" type="curve"/>
      <point x="862" y="618"/>
      <point x="867" y="467"/>
      <point x="867" y="410" type="curve" smooth="yes"/>
      <point x="867" y="293"/>
      <point x="748" y="241"/>
    </contour>
    <contour>
      <point x="740" y="893" type="curve"/>
      <point x="563" y="950"/>
      <point x="491" y="973"/>
      <point x="491" y="1096" type="curve" smooth="yes"/>
      <point x="491" y="1181"/>
      <point x="568" y="1241"/>
      <point x="663" y="1241" type="curve" smooth="yes"/>
      <point x="766" y="1241"/>
      <point x="836" y="1177"/>
      <point x="836" y="1078" type="curve" smooth="yes"/>
      <point x="836" y="988"/>
      <point x="791" y="933"/>
    </contour>
  </outline>
</glyph>
<glyph name="nine" format="1">
  <advance width="1250"/>
  <unicode hex="0039"/>
  <outline>
    <contour>
      <point x="253" y="0" type="curve"/>
      <point x="888" y="0"/>
      <point x="1158" y="366"/>
      <point x="1164" y="885" type="curve"/>
      <point x="1164" y="1289"/>
      <point x="950" y="1503"/>
      <point x="612" y="1503" type="curve" smooth="yes"/>
      <point x="281" y="1503"/>
      <point x="61" y="1301"/>
      <point x="61" y="983" type="curve" smooth="yes"/>
      <point x="61" y="627"/>
      <point x="305" y="520"/>
      <point x="474" y="520" type="curve" smooth="yes"/>
      <point x="530" y="520"/>
      <point x="640" y="532"/>
      <point x="725" y="594" type="curve"/>
      <point x="643" y="260"/>
      <point x="195" y="242"/>
      <point x="195" y="242" type="curve"/>
      <point x="217" y="164"/>
      <point x="235" y="81"/>
    </contour>
    <contour>
      <point x="622" y="780" type="curve" smooth="yes"/>
      <point x="517" y="780"/>
      <point x="439" y="832"/>
      <point x="439" y="1011" type="curve" smooth="yes"/>
      <point x="439" y="1193"/>
      <point x="540" y="1243"/>
      <point x="618" y="1243" type="curve" smooth="yes"/>
      <point x="731" y="1243"/>
      <point x="786" y="1153"/>
      <point x="786" y="982" type="curve" smooth="yes"/>
      <point x="786" y="877"/>
      <point x="730" y="780"/>
    </contour>
  </outline>
</glyph>
<glyph name="semicolon" format="1">
  <advance width="598"/>
  <unicode hex="003B"/>
  <outline>
    <contour>
      <point x="105" y="-255" type="line"/>
      <point x="276" y="-255" type="line"/>
      <point x="502" y="318" type="line"/>
      <point x="165" y="318" type="line"/>
    </contour>
    <contour>
      <point x="297" y="630" type="curve" smooth="yes"/>
      <point x="409" y="630"/>
      <point x="501" y="720"/>
      <point x="501" y="832" type="curve" smooth="yes"/>
      <point x="501" y="944"/>
      <point x="409" y="1035"/>
      <point x="297" y="1035" type="curve" smooth="yes"/>
      <point x="185" y="1035"/>
      <point x="95" y="944"/>
      <point x="95" y="832" type="curve" smooth="yes"/>
      <point x="95" y="720"/>
      <point x="185" y="630"/>
    </contour>
  </outline>
</glyph>
<glyph name="less" format="1">
  <advance width="1499"/>
  <unicode hex="003C"/>
  <outline>
    <contour>
      <point x="1350" y="-15" type="line"/>
      <point x="1350" y="234" type="line"/>
      <point x="1350" y="234"/>
      <point x="529" y="551"/>
      <point x="446" y="583" type="curve"/>
      <point x="538" y="613"/>
      <point x="1350" y="917"/>
      <point x="1350" y="917" type="curve"/>
      <point x="1350" y="1164" type="line"/>
      <point x="128" y="679" type="line"/>
      <point x="128" y="472" type="line"/>
    </contour>
  </outline>
</glyph>
<glyph name="equal" format="1">
  <advance width="1499"/>
  <unicode hex="003D"/>
  <outline>
    <contour>
      <point x="171" y="228" type="line"/>
      <point x="1332" y="228" type="line"/>
      <point x="1332" y="464" type="line"/>
      <point x="171" y="464" type="line"/>
    </contour>
    <contour>
      <point x="171" y="688" type="line"/>
      <point x="1332" y="688" type="line"/>
      <point x="1332" y="924" type="line"/>
      <point x="171" y="924" type="line"/>
    </contour>
  </outline>
</glyph>
<glyph name="question" format="1">
  <advance width="1148"/>
  <unicode hex="003F"/>
  <outline>
    <contour>
      <point x="629" y="527" type="line"/>
      <point x="824" y="665"/>
      <point x="1069" y="808"/>
      <point x="1069" y="1107" type="curve" smooth="yes"/>
      <point x="1069" y="1337"/>
      <point x="866" y="1503"/>
      <point x="552" y="1503" type="curve" smooth="yes"/>
      <point x="366" y="1503"/>
      <point x="217" y="1409"/>
      <point x="155" y="1373" type="curve"/>
      <point x="155" y="1081" type="line"/>
      <point x="206" y="1132"/>
      <point x="361" y="1215"/>
      <point x="492" y="1215" type="curve" smooth="yes"/>
      <point x="595" y="1215"/>
      <point x="697" y="1157"/>
      <point x="697" y="1012" type="curve" smooth="yes"/>
      <point x="697" y="863"/>
      <point x="575" y="708"/>
      <point x="424" y="527" type="curve"/>
    </contour>
    <contour>
      <point x="511" y="-24" type="curve" smooth="yes"/>
      <point x="631" y="-24"/>
      <point x="729" y="74"/>
      <point x="729" y="195" type="curve" smooth="yes"/>
      <point x="729" y="315"/>
      <point x="631" y="413"/>
      <point x="511" y="413" type="curve" smooth="yes"/>
      <point x="390" y="413"/>
      <point x="292" y="315"/>
      <point x="292" y="195" type="curve" smooth="yes"/>
      <point x="292" y="74"/>
      <point x="390" y="-24"/>
    </contour>
  </outline>
</glyph>
<glyph name="at" format="1">
  <advance width="1823"/>
  <unicode hex="0040"/>
  <outline>
    <contour>
      <point x="983" y="-143" type="curve" smooth="yes"/>
      <point x="1145" y="-143"/>
      <point x="1325" y="-88"/>
      <point x="1463" y="11" type="curve"/>
      <point x="1413" y="135" type="line"/>
      <point x="1286" y="66"/>
      <point x="1136" y="30"/>
      <point x="983" y="30" type="curve" smooth="yes"/>
      <point x="587" y="30"/>
      <point x="310" y="287"/>
      <point x="310" y="665" type="curve" smooth="yes"/>
      <point x="310" y="1032"/>
      <point x="577" y="1317"/>
      <point x="988" y="1317" type="curve" smooth="yes"/>
      <point x="1353" y="1317"/>
      <point x="1601" y="1075"/>
      <point x="1601" y="727" type="curve" smooth="yes"/>
      <point x="1601" y="562"/>
      <point x="1559" y="338"/>
      <point x="1399" y="338" type="curve" smooth="yes"/>
      <point x="1322" y="338"/>
      <point x="1304" y="381"/>
      <point x="1304" y="443" type="curve" smooth="yes"/>
      <point x="1304" y="463"/>
      <point x="1307" y="488"/>
      <point x="1310" y="512" type="curve" smooth="yes"/>
      <point x="1378" y="1108" type="line"/>
      <point x="1190" y="1108" type="line"/>
      <point x="1180" y="1047" type="line"/>
      <point x="1131" y="1080"/>
      <point x="1081" y="1145"/>
      <point x="932" y="1145" type="curve" smooth="yes"/>
      <point x="683" y="1145"/>
      <point x="494" y="904"/>
      <point x="494" y="607" type="curve" smooth="yes"/>
      <point x="494" y="402"/>
      <point x="633" y="215"/>
      <point x="853" y="215" type="curve" smooth="yes"/>
      <point x="950" y="215"/>
      <point x="1082" y="251"/>
      <point x="1138" y="319" type="curve"/>
      <point x="1173" y="225"/>
      <point x="1250" y="189"/>
      <point x="1365" y="189" type="curve" smooth="yes"/>
      <point x="1614" y="189"/>
      <point x="1785" y="404"/>
      <point x="1785" y="745" type="curve" smooth="yes"/>
      <point x="1785" y="1178"/>
      <point x="1454" y="1492"/>
      <point x="983" y="1492" type="curve" smooth="yes"/>
      <point x="487" y="1492"/>
      <point x="122" y="1148"/>
      <point x="122" y="667" type="curve" smooth="yes"/>
      <point x="122" y="191"/>
      <point x="474" y="-143"/>
    </contour>
    <contour>
      <point x="899" y="367" type="curve" smooth="yes"/>
      <point x="783" y="367"/>
      <point x="695" y="453"/>
      <point x="695" y="621" type="curve" smooth="yes"/>
      <point x="695" y="816"/>
      <point x="809" y="977"/>
      <point x="970" y="977" type="curve" smooth="yes"/>
      <point x="1043" y="977"/>
      <point x="1108" y="931"/>
      <point x="1151" y="874" type="curve"/>
      <point x="1105" y="420" type="line"/>
      <point x="1035" y="385"/>
      <point x="965" y="367"/>
    </contour>
  </outline>
</glyph>
<glyph name="A" format="1">
  <advance width="1433"/>
  <unicode hex="0041"/>
  <outline>
    <contour>
      <point x="-1" y="0" type="line"/>
      <point x="391" y="0" type="line"/>
      <point x="479" y="281" type="line"/>
      <point x="949" y="281" type="line"/>
      <point x="1038" y="0" type="line"/>
      <point x="1434" y="0" type="line"/>
      <point x="917" y="1481" type="line"/>
      <point x="518" y="1481" type="line"/>
    </contour>
    <contour>
      <point x="564" y="553" type="line"/>
      <point x="714" y="1057" type="line"/>
      <point x="865" y="553" type="line"/>
    </contour>
  </outline>
</glyph>
<glyph name="B" format="1">
  <advance width="1432"/>
  <unicode hex="0042"/>
  <outline>
    <contour>
      <point x="146" y="0" type="line"/>
      <point x="761" y="0" type="line" smooth="yes"/>
      <point x="1097" y="0"/>
      <point x="1367" y="121"/>
      <point x="1367" y="443" type="curve" smooth="yes"/>
      <point x="1367" y="625"/>
      <point x="1246" y="749"/>
      <point x="1072" y="785" type="curve"/>
      <point x="1072" y="792" type="line"/>
      <point x="1200" y="845"/>
      <point x="1267" y="956"/>
      <point x="1267" y="1078" type="curve" smooth="yes"/>
      <point x="1267" y="1417"/>
      <point x="999" y="1481"/>
      <point x="566" y="1481" type="curve" smooth="yes"/>
      <point x="146" y="1481" type="line"/>
    </contour>
    <contour>
      <point x="529" y="270" type="line"/>
      <point x="529" y="632" type="line"/>
      <point x="607" y="632" type="line" smooth="yes"/>
      <point x="793" y="632"/>
      <point x="965" y="620"/>
      <point x="965" y="454" type="curve" smooth="yes"/>
      <point x="965" y="328"/>
      <point x="862" y="270"/>
      <point x="726" y="270" type="curve" smooth="yes"/>
    </contour>
    <contour>
      <point x="529" y="881" type="line"/>
      <point x="529" y="1211" type="line"/>
      <point x="602" y="1211" type="line" smooth="yes"/>
      <point x="812" y="1211"/>
      <point x="912" y="1185"/>
      <point x="912" y="1049" type="curve" smooth="yes"/>
      <point x="912" y="906"/>
      <point x="810" y="881"/>
      <point x="590" y="881" type="curve" smooth="yes"/>
    </contour>
  </outline>
</glyph>
<glyph name="C" format="1">
  <advance width="1393"/>
  <unicode hex="0043"/>
  <outline>
    <contour>
      <point x="846" y="-26" type="curve" smooth="yes"/>
      <point x="1040" y="-26"/>
      <point x="1171" y="18"/>
      <point x="1321" y="103" type="curve"/>
      <point x="1255" y="378" type="line"/>
      <point x="1255" y="378"/>
      <point x="1083" y="260"/>
      <point x="893" y="260" type="curve" smooth="yes"/>
      <point x="612" y="260"/>
      <point x="493" y="426"/>
      <point x="493" y="737" type="curve" smooth="yes"/>
      <point x="493" y="1041"/>
      <point x="620" y="1213"/>
      <point x="888" y="1213" type="curve" smooth="yes"/>
      <point x="1098" y="1213"/>
      <point x="1244" y="1096"/>
      <point x="1244" y="1096" type="curve"/>
      <point x="1321" y="1391" type="line"/>
      <point x="1181.53972321" y="1461.74072011"/>
      <point x="1040" y="1501"/>
      <point x="849" y="1501" type="curve" smooth="yes"/>
      <point x="397" y="1501"/>
      <point x="99" y="1230"/>
      <point x="99" y="740" type="curve" smooth="yes"/>
      <point x="99" y="253"/>
      <point x="345" y="-26"/>
    </contour>
  </outline>
</glyph>
<glyph name="D" format="1">
  <advance width="1545"/>
  <unicode hex="0044"/>
  <outline>
    <contour>
      <point x="531" y="276" type="line"/>
      <point x="531" y="1205" type="line"/>
      <point x="707" y="1205" type="line" smooth="yes"/>
      <point x="931" y="1205"/>
      <point x="1053" y="1052"/>
      <point x="1053" y="737" type="curve" smooth="yes"/>
      <point x="1053" y="399"/>
      <point x="933" y="276"/>
      <point x="645" y="276" type="curve" smooth="yes"/>
    </contour>
    <contour>
      <point x="146" y="0" type="line"/>
      <point x="606" y="0" type="line" smooth="yes"/>
      <point x="1122" y="0"/>
      <point x="1446" y="182"/>
      <point x="1446" y="738" type="curve" smooth="yes"/>
      <point x="1446" y="1290"/>
      <point x="1136" y="1481"/>
      <point x="611" y="1481" type="curve" smooth="yes"/>
      <point x="146" y="1481" type="line"/>
    </contour>
  </outline>
</glyph>
<glyph name="E" format="1">
  <advance width="1253"/>
  <unicode hex="0045"/>
  <outline>
    <contour>
      <point x="146" y="0" type="line"/>
      <point x="1178" y="0" type="line"/>
      <point x="1178" y="276" type="line"/>
      <point x="529" y="276" type="line"/>
      <point x="529" y="636" type="line"/>
      <point x="1093" y="636" type="line"/>
      <point x="1093" y="910" type="line"/>
      <point x="529" y="910" type="line"/>
      <point x="529" y="1205" type="line"/>
      <point x="1179" y="1205" type="line"/>
      <point x="1179" y="1481" type="line"/>
      <point x="146" y="1481" type="line"/>
    </contour>
  </outline>
</glyph>
<glyph name="F" format="1">
  <advance width="1207"/>
  <unicode hex="0046"/>
  <outline>
    <contour>
      <point x="146" y="0" type="line"/>
      <point x="529" y="0" type="line"/>
      <point x="529" y="615" type="line"/>
      <point x="1119" y="615" type="line"/>
      <point x="1119" y="889" type="line"/>
      <point x="529" y="889" type="line"/>
      <point x="529" y="1205" type="line"/>
      <point x="1178" y="1205" type="line"/>
      <point x="1178" y="1481" type="line"/>
      <point x="146" y="1481" type="line"/>
    </contour>
  </outline>
</glyph>
<glyph name="G" format="1">
  <advance width="1498.0"/>
  <unicode hex="0047"/>
  <outline>
    <contour>
      <point x="839" y="-22" type="curve" smooth="yes"/>
      <point x="1066" y="-22"/>
      <point x="1311.0" y="54.0"/>
      <point x="1387.0" y="141.0" type="curve"/>
      <point x="1387.0" y="831.0" type="line"/>
      <point x="761" y="831" type="line"/>
      <point x="761" y="579" type="line"/>
      <point x="1099" y="579" type="line"/>
      <point x="1099" y="290" type="line"/>
      <point x="1098" y="292"/>
      <point x="992" y="262"/>
      <point x="856" y="262" type="curve" smooth="yes"/>
      <point x="603" y="262"/>
      <point x="493" y="436"/>
      <point x="493" y="746" type="curve" smooth="yes"/>
      <point x="493" y="1050"/>
      <point x="615.0" y="1211.0"/>
      <point x="912.0" y="1211.0" type="curve" smooth="yes"/>
      <point x="1127.0" y="1211.0"/>
      <point x="1308.0" y="1079.0"/>
      <point x="1308.0" y="1076.0" type="curve" smooth="yes"/>
      <point x="1382.0" y="1353.0" type="line"/>
      <point x="1232.0" y="1443.0"/>
      <point x="1113.0" y="1504.0"/>
      <point x="842.0" y="1504.0" type="curve" smooth="yes"/>
      <point x="359.0" y="1504.0"/>
      <point x="99" y="1235"/>
      <point x="99" y="741" type="curve" smooth="yes"/>
      <point x="99" y="269"/>
      <point x="350" y="-22"/>
    </contour>
  </outline>
</glyph>
<glyph name="H" format="1">
  <advance width="1549"/>
  <unicode hex="0048"/>
  <outline>
    <contour>
      <point x="146" y="0" type="line"/>
      <point x="531" y="0" type="line"/>
      <point x="531" y="636" type="line"/>
      <point x="1018" y="636" type="line"/>
      <point x="1018" y="0" type="line"/>
      <point x="1403" y="0" type="line"/>
      <point x="1403" y="1481" type="line"/>
      <point x="1018" y="1481" type="line"/>
      <point x="1018" y="911" type="line"/>
      <point x="531" y="911" type="line"/>
      <point x="531" y="1481" type="line"/>
      <point x="146" y="1481" type="line"/>
    </contour>
  </outline>
</glyph>
<glyph name="I" format="1">
  <advance width="929"/>
  <unicode hex="0049"/>
  <outline>
    <contour>
      <point x="56" y="0" type="line"/>
      <point x="873" y="0" type="line"/>
      <point x="873" y="276" type="line"/>
      <point x="657" y="276" type="line"/>
      <point x="657" y="1205" type="line"/>
      <point x="873" y="1205" type="line"/>
      <point x="873" y="1481" type="line"/>
      <point x="56" y="1481" type="line"/>
      <point x="56" y="1205" type="line"/>
      <point x="272" y="1205" type="line"/>
      <point x="272" y="276" type="line"/>
      <point x="56" y="276" type="line"/>
    </contour>
  </outline>
</glyph>
<glyph name="K" format="1">
  <advance width="1482"/>
  <unicode hex="004B"/>
  <outline>
    <contour>
      <point x="146" y="0" type="line"/>
      <point x="529" y="0" type="line"/>
      <point x="529" y="477" type="line"/>
      <point x="652" y="628" type="line"/>
      <point x="730" y="503" type="line"/>
      <point x="829" y="334"/>
      <point x="1032" y="0"/>
      <point x="1032" y="0" type="curve"/>
      <point x="1490" y="0" type="line"/>
      <point x="964" y="820" type="line"/>
      <point x="1461" y="1481" type="line"/>
      <point x="1018" y="1481" type="line"/>
      <point x="906" y="1322"/>
      <point x="778" y="1164"/>
      <point x="667" y="1005" type="curve"/>
      <point x="531" y="820" type="line"/>
      <point x="529" y="820" type="line"/>
      <point x="529" y="1481" type="line"/>
      <point x="146" y="1481" type="line"/>
    </contour>
  </outline>
</glyph>
<glyph name="L" format="1">
  <advance width="1187"/>
  <unicode hex="004C"/>
  <outline>
    <contour>
      <point x="146" y="0" type="line"/>
      <point x="1154" y="0" type="line"/>
      <point x="1154" y="276" type="line"/>
      <point x="531" y="276" type="line"/>
      <point x="531" y="1481" type="line"/>
      <point x="146" y="1481" type="line"/>
    </contour>
  </outline>
</glyph>
<glyph name="M" format="1">
  <advance width="1828"/>
  <unicode hex="004D"/>
  <outline>
    <contour>
      <point x="146.0" y="0.0" type="line"/>
      <point x="514.0" y="0.0" type="line"/>
      <point x="514.0" y="701.0" type="line" smooth="yes"/>
      <point x="514.0" y="749.0"/>
      <point x="510" y="878"/>
      <point x="510" y="878" type="curve"/>
      <point x="510" y="878"/>
      <point x="767" y="292"/>
      <point x="767.0" y="292.0" type="curve"/>
      <point x="1045" y="292" type="line"/>
      <point x="1045" y="292"/>
      <point x="1304" y="878"/>
      <point x="1304" y="878" type="curve"/>
      <point x="1304" y="878"/>
      <point x="1300.0" y="749.0"/>
      <point x="1300.0" y="701.0" type="curve" smooth="yes"/>
      <point x="1300.0" y="0.0" type="line"/>
      <point x="1682.0" y="0.0" type="line"/>
      <point x="1682.0" y="1481.0" type="line"/>
      <point x="1268" y="1481" type="line"/>
      <point x="915" y="694" type="line"/>
      <point x="563" y="1481" type="line"/>
      <point x="146.0" y="1481.0" type="line"/>
    </contour>
  </outline>
</glyph>
<glyph name="N" format="1">
  <advance width="1595"/>
  <unicode hex="004E"/>
  <outline>
    <contour>
      <point x="146.0" y="0.0" type="line"/>
      <point x="504.0" y="0.0" type="line"/>
      <point x="504" y="646" type="line" smooth="yes"/>
      <point x="504" y="697"/>
      <point x="499" y="948"/>
      <point x="499" y="948" type="curve"/>
      <point x="499" y="948"/>
      <point x="1096" y="0"/>
      <point x="1096.0" y="0.0" type="curve"/>
      <point x="1449.0" y="0.0" type="line"/>
      <point x="1449.0" y="1481.0" type="line"/>
      <point x="1092.0" y="1481.0" type="line"/>
      <point x="1092" y="943" type="line"/>
      <point x="1099" y="672" type="line"/>
      <point x="1099" y="672"/>
      <point x="555" y="1481"/>
      <point x="555" y="1481" type="curve"/>
      <point x="146.0" y="1481.0" type="line"/>
    </contour>
  </outline>
</glyph>
<glyph name="O" format="1">
  <advance width="1587"/>
  <unicode hex="004F"/>
  <outline>
    <contour>
      <point x="796" y="264" type="curve" smooth="yes"/>
      <point x="569" y="264"/>
      <point x="492" y="441"/>
      <point x="492" y="740" type="curve" smooth="yes"/>
      <point x="492" y="1041"/>
      <point x="570" y="1215"/>
      <point x="796" y="1215" type="curve" smooth="yes"/>
      <point x="1020" y="1215"/>
      <point x="1096" y="1037"/>
      <point x="1096" y="740" type="curve" smooth="yes"/>
      <point x="1096" y="452"/>
      <point x="1023" y="264"/>
    </contour>
    <contour>
      <point x="795" y="-24" type="curve" smooth="yes"/>
      <point x="1254" y="-24"/>
      <point x="1488" y="253"/>
      <point x="1488" y="740" type="curve" smooth="yes"/>
      <point x="1488" y="1232"/>
      <point x="1252" y="1504"/>
      <point x="795" y="1504" type="curve" smooth="yes"/>
      <point x="338" y="1504"/>
      <point x="99" y="1230"/>
      <point x="99" y="740" type="curve" smooth="yes"/>
      <point x="99" y="253"/>
      <point x="336" y="-24"/>
    </contour>
  </outline>
</glyph>
<glyph name="P" format="1">
  <advance width="1376"/>
  <unicode hex="0050"/>
  <outline>
    <contour>
      <point x="146" y="0" type="line"/>
      <point x="531" y="0" type="line"/>
      <point x="531" y="511" type="line"/>
      <point x="757" y="511" type="line" smooth="yes"/>
      <point x="1124" y="511"/>
      <point x="1343" y="714"/>
      <point x="1343" y="1011" type="curve" smooth="yes"/>
      <point x="1343" y="1352"/>
      <point x="1079" y="1481"/>
      <point x="780" y="1481" type="curve" smooth="yes"/>
      <point x="146" y="1481" type="line"/>
    </contour>
    <contour>
      <point x="531" y="781" type="line"/>
      <point x="531" y="1211" type="line"/>
      <point x="635" y="1211" type="line" smooth="yes"/>
      <point x="768" y="1211"/>
      <point x="951" y="1194"/>
      <point x="951" y="1007" type="curve" smooth="yes"/>
      <point x="951" y="793"/>
      <point x="764" y="781"/>
      <point x="562" y="781" type="curve" smooth="yes"/>
    </contour>
  </outline>
</glyph>
<glyph name="Q" format="1">
  <advance width="1587"/>
  <unicode hex="0051"/>
  <outline>
    <contour>
      <point x="1036" y="-416" type="line"/>
      <point x="1227" y="-332" type="line"/>
      <point x="896" y="456" type="line"/>
      <point x="896" y="456"/>
      <point x="662" y="456"/>
      <point x="662" y="456" type="curve"/>
    </contour>
    <component base="O"/>
  </outline>
</glyph>
<glyph name="R" format="1">
  <advance width="1451"/>
  <unicode hex="0052"/>
  <outline>
    <contour>
      <point x="146" y="0" type="line"/>
      <point x="529" y="0" type="line"/>
      <point x="529" y="573" type="line"/>
      <point x="685" y="573" type="line"/>
      <point x="1015" y="0" type="line"/>
      <point x="1412" y="0" type="line"/>
      <point x="1412" y="80" type="line"/>
      <point x="1048" y="636" type="line"/>
      <point x="1260" y="717"/>
      <point x="1354" y="838"/>
      <point x="1354" y="1056" type="curve" smooth="yes"/>
      <point x="1354" y="1489"/>
      <point x="917" y="1481"/>
      <point x="631" y="1481" type="curve" smooth="yes"/>
      <point x="146" y="1481" type="line"/>
    </contour>
    <contour>
      <point x="529" y="843" type="line"/>
      <point x="529" y="1211" type="line"/>
      <point x="652" y="1211" type="line" smooth="yes"/>
      <point x="888" y="1211"/>
      <point x="966" y="1172"/>
      <point x="966" y="1032" type="curve" smooth="yes"/>
      <point x="966" y="878"/>
      <point x="870" y="843"/>
      <point x="665" y="843" type="curve" smooth="yes"/>
    </contour>
  </outline>
</glyph>
<glyph name="S" format="1">
  <advance width="1354.0"/>
  <unicode hex="0053"/>
  <outline>
    <contour>
      <point x="646.0" y="-20.0" type="curve" smooth="yes"/>
      <point x="1029.0" y="-20.0"/>
      <point x="1284.0" y="164.0"/>
      <point x="1284.0" y="457.0" type="curve" smooth="yes"/>
      <point x="1284.0" y="704.0"/>
      <point x="1137.0" y="841"/>
      <point x="803.0" y="909" type="curve"/>
      <point x="561.0" y="955"/>
      <point x="493" y="982"/>
      <point x="493" y="1074" type="curve" smooth="yes"/>
      <point x="493" y="1164"/>
      <point x="568" y="1221"/>
      <point x="705" y="1221" type="curve" smooth="yes"/>
      <point x="862" y="1221"/>
      <point x="1009.0" y="1170.0"/>
      <point x="1123.0" y="1090.0" type="curve"/>
      <point x="1183.0" y="1090.0" type="line"/>
      <point x="1230.0" y="1383.0" type="line"/>
      <point x="1089.0" y="1455.0"/>
      <point x="898.0" y="1503.0"/>
      <point x="710.0" y="1503.0" type="curve" smooth="yes"/>
      <point x="361.0" y="1503.0"/>
      <point x="110" y="1309"/>
      <point x="110" y="1040" type="curve" smooth="yes"/>
      <point x="110" y="798"/>
      <point x="221" y="680"/>
      <point x="510" y="606" type="curve" smooth="yes"/>
      <point x="738" y="548"/>
      <point x="895.0" y="553.0"/>
      <point x="895.0" y="408.0" type="curve" smooth="yes"/>
      <point x="895.0" y="290.0"/>
      <point x="751.0" y="260.0"/>
      <point x="646.0" y="260.0" type="curve" smooth="yes"/>
      <point x="489.0" y="260.0"/>
      <point x="326.0" y="316.0"/>
      <point x="188.0" y="418.0" type="curve"/>
      <point x="128.0" y="418.0" type="line"/>
      <point x="76.0" y="125.0" type="line"/>
      <point x="226.0" y="35.0"/>
      <point x="408.0" y="-20.0"/>
    </contour>
  </outline>
</glyph>
<glyph name="T" format="1">
  <advance width="1220"/>
  <unicode hex="0054"/>
  <outline>
    <contour>
      <point x="417" y="0" type="line"/>
      <point x="804" y="0" type="line"/>
      <point x="804" y="1205" type="line"/>
      <point x="1222" y="1205" type="line"/>
      <point x="1222" y="1481" type="line"/>
      <point x="-2" y="1481" type="line"/>
      <point x="-2" y="1205" type="line"/>
      <point x="417" y="1205" type="line"/>
    </contour>
  </outline>
</glyph>
<glyph name="U" format="1">
  <advance width="1513"/>
  <unicode hex="0055"/>
  <outline>
    <contour>
      <point x="756" y="-24" type="curve" smooth="yes"/>
      <point x="1152" y="-24"/>
      <point x="1384" y="178"/>
      <point x="1384" y="506" type="curve" smooth="yes"/>
      <point x="1384" y="1481" type="line"/>
      <point x="999" y="1481" type="line"/>
      <point x="999" y="538" type="line" smooth="yes"/>
      <point x="999" y="351"/>
      <point x="910" y="266"/>
      <point x="756" y="266" type="curve" smooth="yes"/>
      <point x="595" y="266"/>
      <point x="515" y="355"/>
      <point x="515" y="536" type="curve" smooth="yes"/>
      <point x="515" y="1481" type="line"/>
      <point x="129" y="1481" type="line"/>
      <point x="129" y="505" type="line" smooth="yes"/>
      <point x="129" y="171"/>
      <point x="376" y="-24"/>
    </contour>
  </outline>
</glyph>
<glyph name="V" format="1">
  <advance width="1343"/>
  <unicode hex="0056"/>
  <outline>
    <contour>
      <point x="490" y="0" type="line"/>
      <point x="853" y="0" type="line"/>
      <point x="1367" y="1481" type="line"/>
      <point x="977" y="1481" type="line"/>
      <point x="898" y="1227"/>
      <point x="813" y="976"/>
      <point x="736" y="720" type="curve" smooth="yes"/>
      <point x="716" y="652"/>
      <point x="695" y="585"/>
      <point x="677" y="516" type="curve"/>
      <point x="675" y="516" type="line"/>
      <point x="675" y="516"/>
      <point x="629" y="674"/>
      <point x="613" y="718" type="curve"/>
      <point x="533" y="971"/>
      <point x="454" y="1228"/>
      <point x="375" y="1481" type="curve"/>
      <point x="-24" y="1481" type="line"/>
    </contour>
  </outline>
</glyph>
<glyph name="X" format="1">
  <advance width="1384"/>
  <unicode hex="0058"/>
  <outline>
    <contour>
      <point x="-23" y="0" type="line"/>
      <point x="405" y="0" type="line"/>
      <point x="405" y="0"/>
      <point x="582" y="295"/>
      <point x="589" y="306" type="curve" smooth="yes"/>
      <point x="620" y="357"/>
      <point x="653" y="411"/>
      <point x="684" y="462" type="curve"/>
      <point x="714" y="413"/>
      <point x="749" y="358"/>
      <point x="780" y="309" type="curve"/>
      <point x="961" y="0" type="line"/>
      <point x="1407" y="0" type="line"/>
      <point x="924" y="764" type="line"/>
      <point x="1381" y="1481" type="line"/>
      <point x="951" y="1481" type="line"/>
      <point x="794" y="1213" type="line"/>
      <point x="759" y="1156"/>
      <point x="728" y="1106"/>
      <point x="695" y="1053" type="curve"/>
      <point x="663" y="1109"/>
      <point x="630" y="1162"/>
      <point x="598" y="1218" type="curve" smooth="yes"/>
      <point x="547" y="1306"/>
      <point x="496" y="1392"/>
      <point x="445" y="1481" type="curve"/>
      <point x="1" y="1481" type="line"/>
      <point x="459" y="752" type="line"/>
    </contour>
  </outline>
</glyph>
<glyph name="Y" format="1">
  <advance width="1381"/>
  <unicode hex="0059"/>
  <outline>
    <contour>
      <point x="504" y="0" type="line"/>
      <point x="885" y="0" type="line"/>
      <point x="885" y="608" type="line"/>
      <point x="1392" y="1481" type="line"/>
      <point x="994" y="1481" type="line"/>
      <point x="994" y="1481"/>
      <point x="702" y="953"/>
      <point x="702" y="953" type="curve"/>
      <point x="702" y="953"/>
      <point x="400" y="1481"/>
      <point x="400" y="1481" type="curve"/>
      <point x="-11" y="1481" type="line"/>
      <point x="504" y="596" type="line"/>
    </contour>
  </outline>
</glyph>
<glyph name="Z" format="1">
  <advance width="1231"/>
  <unicode hex="005A"/>
  <outline>
    <contour>
      <point x="53" y="0" type="line"/>
      <point x="1200" y="0" type="line"/>
      <point x="1200" y="276" type="line"/>
      <point x="529" y="276" type="line"/>
      <point x="1166" y="1209" type="line"/>
      <point x="1166" y="1481" type="line"/>
      <point x="88" y="1481" type="line"/>
      <point x="88" y="1205" type="line"/>
      <point x="693" y="1205" type="line"/>
      <point x="53" y="272" type="line"/>
    </contour>
  </outline>
</glyph>
<glyph name="bracketleft" format="1">
  <advance width="839"/>
  <unicode hex="005B"/>
  <outline>
    <contour>
      <point x="145" y="-326" type="line"/>
      <point x="741" y="-326" type="line"/>
      <point x="741" y="-102" type="line"/>
      <point x="454" y="-102" type="line"/>
      <point x="454" y="1299" type="line"/>
      <point x="741" y="1299" type="line"/>
      <point x="741" y="1524" type="line"/>
      <point x="145" y="1524" type="line"/>
    </contour>
  </outline>
</glyph>
<glyph name="backslash" format="1">
  <advance width="1124"/>
  <unicode hex="005C"/>
  <outline>
    <contour>
      <point x="721" y="0" type="line"/>
      <point x="1007" y="0" type="line"/>
      <point x="464" y="1481" type="line"/>
      <point x="179" y="1481" type="line"/>
    </contour>
  </outline>
</glyph>
<glyph name="bracketright" format="1">
  <advance width="839"/>
  <unicode hex="005D"/>
  <outline>
    <contour>
      <point x="99" y="-326" type="line"/>
      <point x="697" y="-326" type="line"/>
      <point x="697" y="1524" type="line"/>
      <point x="99" y="1524" type="line"/>
      <point x="99" y="1299" type="line"/>
      <point x="387" y="1299" type="line"/>
      <point x="387" y="-102" type="line"/>
      <point x="99" y="-102" type="line"/>
    </contour>
  </outline>
</glyph>
<glyph name="asciicircum" format="1">
  <advance width="1498"/>
  <unicode hex="005E"/>
  <outline>
    <contour>
      <point x="141" y="602" type="line"/>
      <point x="431" y="602" type="line"/>
      <point x="736" y="1144" type="line"/>
      <point x="1069" y="604" type="line"/>
      <point x="1359" y="604" type="line"/>
      <point x="853" y="1396" type="line"/>
      <point x="621" y="1396" type="line"/>
    </contour>
  </outline>
</glyph>
<glyph name="a" format="1">
  <advance width="1144"/>
  <unicode hex="0061"/>
  <outline>
    <contour>
      <point x="385" y="-18" type="curve" smooth="yes"/>
      <point x="542" y="-18"/>
      <point x="654" y="70"/>
      <point x="710" y="213" type="curve"/>
      <point x="710" y="0" type="line"/>
      <point x="1047" y="0" type="line"/>
      <point x="1047" y="707" type="line" smooth="yes"/>
      <point x="1047" y="949"/>
      <point x="882" y="1059"/>
      <point x="522" y="1059" type="curve" smooth="yes"/>
      <point x="365" y="1059"/>
      <point x="175" y="1006"/>
      <point x="132" y="981" type="curve"/>
      <point x="194" y="756" type="line"/>
      <point x="265" y="786"/>
      <point x="405" y="817"/>
      <point x="507" y="817" type="curve" smooth="yes"/>
      <point x="676" y="817"/>
      <point x="711" y="768"/>
      <point x="711" y="651" type="curve"/>
      <point x="354" y="651"/>
      <point x="57" y="613"/>
      <point x="57" y="299" type="curve" smooth="yes"/>
      <point x="57" y="118"/>
      <point x="188" y="-18"/>
    </contour>
    <contour>
      <point x="509" y="200" type="curve" smooth="yes"/>
      <point x="439" y="200"/>
      <point x="395" y="258"/>
      <point x="395" y="325" type="curve" smooth="yes"/>
      <point x="395" y="458"/>
      <point x="520" y="481"/>
      <point x="711" y="496" type="curve"/>
      <point x="711" y="255"/>
      <point x="599" y="200"/>
    </contour>
  </outline>
</glyph>
<glyph name="b" format="1">
  <advance width="1256"/>
  <unicode hex="0062"/>
  <outline>
    <contour>
      <point x="744" y="-20" type="curve" smooth="yes"/>
      <point x="1023" y="-20"/>
      <point x="1176" y="215"/>
      <point x="1176" y="527" type="curve" smooth="yes"/>
      <point x="1176" y="852"/>
      <point x="1064" y="1059"/>
      <point x="782" y="1059" type="curve" smooth="yes"/>
      <point x="655" y="1059"/>
      <point x="550" y="1010"/>
      <point x="456" y="934" type="curve"/>
      <point x="456" y="1437" type="line"/>
      <point x="119" y="1437" type="line"/>
      <point x="119" y="0" type="line"/>
      <point x="456" y="0" type="line"/>
      <point x="456" y="118" type="line"/>
      <point x="525" y="39"/>
      <point x="623" y="-20"/>
    </contour>
    <contour>
      <point x="598" y="240" type="curve" smooth="yes"/>
      <point x="554" y="240"/>
      <point x="456" y="260"/>
      <point x="456" y="260" type="curve"/>
      <point x="456" y="741" type="line"/>
      <point x="456" y="741"/>
      <point x="539" y="800"/>
      <point x="621" y="800" type="curve" smooth="yes"/>
      <point x="764" y="800"/>
      <point x="830" y="711"/>
      <point x="830" y="529" type="curve" smooth="yes"/>
      <point x="830" y="349"/>
      <point x="767" y="240"/>
    </contour>
  </outline>
</glyph>
<glyph name="c" format="1">
  <advance width="1077"/>
  <unicode hex="0063"/>
  <outline>
    <contour>
      <point x="649" y="-24" type="curve" smooth="yes"/>
      <point x="792" y="-24"/>
      <point x="922" y="20"/>
      <point x="1029" y="79" type="curve"/>
      <point x="977" y="308" type="line"/>
      <point x="920" y="270"/>
      <point x="820" y="222"/>
      <point x="696" y="222" type="curve" smooth="yes"/>
      <point x="556" y="222"/>
      <point x="427" y="297"/>
      <point x="427" y="515" type="curve" smooth="yes"/>
      <point x="427" y="732"/>
      <point x="552" y="817"/>
      <point x="697" y="817" type="curve" smooth="yes"/>
      <point x="785" y="817"/>
      <point x="911" y="775"/>
      <point x="976" y="724" type="curve"/>
      <point x="1027" y="956" type="line"/>
      <point x="892" y="1031"/>
      <point x="765" y="1059"/>
      <point x="641" y="1059" type="curve" smooth="yes"/>
      <point x="365" y="1059"/>
      <point x="81" y="916"/>
      <point x="81" y="516" type="curve" smooth="yes"/>
      <point x="81" y="139"/>
      <point x="343" y="-24"/>
    </contour>
  </outline>
</glyph>
<glyph name="d" format="1">
  <advance width="1249"/>
  <unicode hex="0064"/>
  <outline>
    <contour>
      <point x="510" y="-20" type="curve" smooth="yes"/>
      <point x="631" y="-20"/>
      <point x="736" y="34"/>
      <point x="796" y="124" type="curve"/>
      <point x="796" y="0" type="line"/>
      <point x="1133" y="0" type="line"/>
      <point x="1133" y="1437" type="line"/>
      <point x="796" y="1437" type="line"/>
      <point x="796" y="961" type="line"/>
      <point x="714" y="1018"/>
      <point x="624" y="1059"/>
      <point x="514" y="1059" type="curve" smooth="yes"/>
      <point x="213" y="1059"/>
      <point x="81" y="855"/>
      <point x="81" y="529" type="curve" smooth="yes"/>
      <point x="81" y="211"/>
      <point x="233" y="-20"/>
    </contour>
    <contour>
      <point x="657" y="224" type="curve" smooth="yes"/>
      <point x="503" y="224"/>
      <point x="426" y="344"/>
      <point x="426" y="510" type="curve" smooth="yes"/>
      <point x="426.0" y="696.036544001"/>
      <point x="485" y="812"/>
      <point x="617" y="812" type="curve" smooth="yes"/>
      <point x="693" y="812"/>
      <point x="752" y="790"/>
      <point x="796" y="759" type="curve"/>
      <point x="796" y="244" type="line"/>
      <point x="750" y="229"/>
      <point x="693" y="224"/>
    </contour>
  </outline>
</glyph>
<glyph name="e" format="1">
  <advance width="1185"/>
  <unicode hex="0065"/>
  <outline>
    <contour>
      <point x="681" y="-24" type="curve" smooth="yes"/>
      <point x="895" y="-24"/>
      <point x="1017" y="33"/>
      <point x="1097" y="90" type="curve"/>
      <point x="1051" y="306" type="line"/>
      <point x="1008" y="306" type="line"/>
      <point x="933" y="260"/>
      <point x="819" y="218"/>
      <point x="712" y="218" type="curve" smooth="yes"/>
      <point x="553" y="218"/>
      <point x="434" y="269"/>
      <point x="421" y="440" type="curve"/>
      <point x="1114" y="440" type="line"/>
      <point x="1114" y="581" type="line" smooth="yes"/>
      <point x="1114" y="875"/>
      <point x="933" y="1059"/>
      <point x="627" y="1059" type="curve" smooth="yes"/>
      <point x="299" y="1059"/>
      <point x="80" y="872"/>
      <point x="80" y="514" type="curve" smooth="yes"/>
      <point x="80" y="140"/>
      <point x="320" y="-24"/>
    </contour>
    <contour>
      <point x="416" y="643" type="line"/>
      <point x="426" y="763"/>
      <point x="502" y="843"/>
      <point x="614" y="843" type="curve" smooth="yes"/>
      <point x="743" y="843"/>
      <point x="815" y="776"/>
      <point x="820" y="643" type="curve"/>
    </contour>
  </outline>
</glyph>
<glyph name="f" format="1">
  <advance width="726"/>
  <unicode hex="0066"/>
  <outline>
    <contour>
      <point x="155" y="0" type="line"/>
      <point x="492" y="0" type="line"/>
      <point x="492" y="820" type="line"/>
      <point x="735" y="820" type="line"/>
      <point x="735" y="1036" type="line"/>
      <point x="483" y="1036" type="line"/>
      <point x="483" y="1171"/>
      <point x="537" y="1207"/>
      <point x="619" y="1207" type="curve" smooth="yes"/>
      <point x="656" y="1207"/>
      <point x="702" y="1202"/>
      <point x="755" y="1197" type="curve"/>
      <point x="755" y="1430" type="line"/>
      <point x="699" y="1436"/>
      <point x="628" y="1443"/>
      <point x="554" y="1443" type="curve" smooth="yes"/>
      <point x="286" y="1443"/>
      <point x="155" y="1327"/>
      <point x="155" y="1076" type="curve" smooth="yes"/>
      <point x="155" y="1036" type="line"/>
      <point x="16" y="1036" type="line"/>
      <point x="16" y="820" type="line"/>
      <point x="155" y="820" type="line"/>
    </contour>
  </outline>
</glyph>
<glyph name="g" format="1">
  <advance width="1201"/>
  <unicode hex="0067"/>
  <outline>
    <contour>
      <point x="553" y="-402" type="curve" smooth="yes"/>
      <point x="848" y="-402"/>
      <point x="1102" y="-284"/>
      <point x="1102" y="88" type="curve" smooth="yes"/>
      <point x="1102" y="1036" type="line"/>
      <point x="754" y="1036" type="line"/>
      <point x="757" y="917" type="line"/>
      <point x="683" y="1022"/>
      <point x="593" y="1059"/>
      <point x="485" y="1059" type="curve" smooth="yes"/>
      <point x="213" y="1059"/>
      <point x="81" y="851"/>
      <point x="81" y="540" type="curve" smooth="yes"/>
      <point x="81" y="185"/>
      <point x="239" y="0"/>
      <point x="537" y="0" type="curve" smooth="yes"/>
      <point x="626" y="0"/>
      <point x="724" y="43"/>
      <point x="765" y="110" type="curve"/>
      <point x="765" y="79" type="line"/>
      <point x="763" y="-95"/>
      <point x="705" y="-151"/>
      <point x="519" y="-151" type="curve" smooth="yes"/>
      <point x="418.995000125" y="-151.0"/>
      <point x="289.578759017" y="-115.578864272"/>
      <point x="218" y="-84" type="curve"/>
      <point x="163" y="-320" type="line"/>
      <point x="258" y="-362"/>
      <point x="401" y="-402"/>
    </contour>
    <contour>
      <point x="615" y="249" type="curve" smooth="yes"/>
      <point x="470" y="249"/>
      <point x="426" y="336"/>
      <point x="426" y="546" type="curve" smooth="yes"/>
      <point x="426" y="707"/>
      <point x="503" y="808"/>
      <point x="631" y="808" type="curve" smooth="yes"/>
      <point x="667" y="808"/>
      <point x="714" y="801"/>
      <point x="757" y="783" type="curve"/>
      <point x="757" y="299" type="line"/>
      <point x="718" y="271"/>
      <point x="671" y="249"/>
    </contour>
  </outline>
</glyph>
<glyph name="h" format="1">
  <advance width="1210"/>
  <unicode hex="0068"/>
  <outline>
    <contour>
      <point x="121" y="0" type="line"/>
      <point x="458" y="0" type="line"/>
      <point x="458" y="630" type="line" smooth="yes"/>
      <point x="458" y="715"/>
      <point x="535" y="785"/>
      <point x="616" y="785" type="curve" smooth="yes"/>
      <point x="738" y="785"/>
      <point x="769" y="716"/>
      <point x="769" y="556" type="curve" smooth="yes"/>
      <point x="769" y="0" type="line"/>
      <point x="1106" y="0" type="line"/>
      <point x="1106" y="681" type="line" smooth="yes"/>
      <point x="1106" y="927"/>
      <point x="969" y="1059"/>
      <point x="768" y="1059" type="curve" smooth="yes"/>
      <point x="558" y="1059"/>
      <point x="458" y="869"/>
      <point x="458" y="869" type="curve"/>
      <point x="458" y="1435" type="line"/>
      <point x="121" y="1435" type="line"/>
    </contour>
  </outline>
</glyph>
<glyph name="i" format="1">
  <advance width="635"/>
  <unicode hex="0069"/>
  <outline>
    <contour>
      <point x="149" y="0" type="line"/>
      <point x="486" y="0" type="line"/>
      <point x="486" y="1036" type="line"/>
      <point x="149" y="1036" type="line"/>
    </contour>
    <contour>
      <point x="317" y="1177" type="curve" smooth="yes"/>
      <point x="448" y="1177"/>
      <point x="514" y="1270"/>
      <point x="514" y="1364" type="curve" smooth="yes"/>
      <point x="514" y="1458"/>
      <point x="448" y="1554"/>
      <point x="317" y="1554" type="curve" smooth="yes"/>
      <point x="186" y="1554"/>
      <point x="121" y="1459"/>
      <point x="121" y="1365" type="curve" smooth="yes"/>
      <point x="121" y="1271"/>
      <point x="186" y="1177"/>
    </contour>
  </outline>
</glyph>
<glyph name="j" format="1">
  <advance width="656"/>
  <unicode hex="006A"/>
  <outline>
    <contour>
      <point x="142" y="-396" type="curve" smooth="yes"/>
      <point x="373" y="-396"/>
      <point x="531" y="-276"/>
      <point x="531" y="-56" type="curve" smooth="yes"/>
      <point x="531" y="1036" type="line"/>
      <point x="194" y="1036" type="line"/>
      <point x="194" y="86" type="line" smooth="yes"/>
      <point x="194" y="-118"/>
      <point x="129" y="-148"/>
      <point x="27" y="-148" type="curve" smooth="yes"/>
      <point x="-4" y="-148"/>
      <point x="-76" y="-143"/>
      <point x="-76" y="-143" type="curve"/>
      <point x="-76" y="-382" type="line"/>
      <point x="-44" y="-385"/>
      <point x="39" y="-396"/>
    </contour>
    <contour>
      <point x="364" y="1173" type="curve" smooth="yes"/>
      <point x="495" y="1173"/>
      <point x="558" y="1265"/>
      <point x="558" y="1359" type="curve" smooth="yes"/>
      <point x="558" y="1453"/>
      <point x="495" y="1546"/>
      <point x="364" y="1546" type="curve" smooth="yes"/>
      <point x="233" y="1546"/>
      <point x="168" y="1453"/>
      <point x="168" y="1359" type="curve" smooth="yes"/>
      <point x="168" y="1265"/>
      <point x="233" y="1173"/>
    </contour>
  </outline>
</glyph>
<glyph name="k" format="1">
  <advance width="1188"/>
  <unicode hex="006B"/>
  <outline>
    <contour>
      <point x="119.0" y="0.0" type="line"/>
      <point x="456" y="0" type="line"/>
      <point x="456" y="362" type="line"/>
      <point x="544" y="459" type="line"/>
      <point x="821.0" y="0.0" type="line"/>
      <point x="1175.0" y="0.0" type="line"/>
      <point x="1175.0" y="78.0" type="line"/>
      <point x="825.0" y="614.0" type="line"/>
      <point x="1154.0" y="992.0" type="line"/>
      <point x="1154.0" y="1036.0" type="line"/>
      <point x="792.0" y="1036.0" type="line"/>
      <point x="792.0" y="1036.0"/>
      <point x="456.0" y="635.0"/>
      <point x="456" y="635" type="curve"/>
      <point x="456" y="1437" type="line"/>
      <point x="119.0" y="1437.0" type="line"/>
    </contour>
  </outline>
</glyph>
<glyph name="l" format="1">
  <advance width="652"/>
  <unicode hex="006C"/>
  <outline>
    <contour>
      <point x="519" y="0" type="curve" smooth="yes"/>
      <point x="605" y="0" type="line"/>
      <point x="605" y="227" type="line"/>
      <point x="496" y="227"/>
      <point x="458" y="270"/>
      <point x="458" y="356" type="curve" smooth="yes"/>
      <point x="458" y="1435" type="line"/>
      <point x="121" y="1435" type="line"/>
      <point x="121" y="356" type="line" smooth="yes"/>
      <point x="121" y="174"/>
      <point x="125" y="0"/>
    </contour>
  </outline>
</glyph>
<glyph name="m" format="1">
  <advance width="1815"/>
  <unicode hex="006D"/>
  <outline>
    <contour>
      <point x="119.0" y="0.0" type="line"/>
      <point x="456.0" y="0.0" type="line"/>
      <point x="456.0" y="688.0" type="line" smooth="yes"/>
      <point x="456.0" y="747.0"/>
      <point x="535.0" y="781.0"/>
      <point x="596.0" y="781.0" type="curve" smooth="yes"/>
      <point x="710.0" y="781.0"/>
      <point x="750.0" y="725.0"/>
      <point x="750.0" y="558.0" type="curve" smooth="yes"/>
      <point x="750.0" y="0.0" type="line"/>
      <point x="1087.0" y="0.0" type="line"/>
      <point x="1087.0" y="688.0" type="line" smooth="yes"/>
      <point x="1087.0" y="727.0"/>
      <point x="1168.0" y="781.0"/>
      <point x="1225.0" y="781.0" type="curve" smooth="yes"/>
      <point x="1349.0" y="781.0"/>
      <point x="1381.0" y="720.0"/>
      <point x="1381.0" y="533.0" type="curve" smooth="yes"/>
      <point x="1381.0" y="0.0" type="line"/>
      <point x="1718.0" y="0.0" type="line"/>
      <point x="1718.0" y="681.0" type="line"/>
      <point x="1719.0" y="946.0"/>
      <point x="1571.0" y="1059.0"/>
      <point x="1390.0" y="1059.0" type="curve" smooth="yes"/>
      <point x="1268.0" y="1059.0"/>
      <point x="1128.0" y="1001.0"/>
      <point x="1053.0" y="860.0" type="curve"/>
      <point x="1003.0" y="1001.0"/>
      <point x="897.0" y="1059.0"/>
      <point x="782.0" y="1059.0" type="curve" smooth="yes"/>
      <point x="654.0" y="1059.0"/>
      <point x="530.0" y="995.0"/>
      <point x="456.0" y="857.0" type="curve"/>
      <point x="456.0" y="1036.0" type="line"/>
      <point x="119.0" y="1036.0" type="line"/>
    </contour>
  </outline>
</glyph>
<glyph name="n" format="1">
  <advance width="1206"/>
  <unicode hex="006E"/>
  <outline>
    <contour>
      <point x="121" y="0" type="line"/>
      <point x="458" y="0" type="line"/>
      <point x="458" y="660" type="line" smooth="yes"/>
      <point x="458" y="705"/>
      <point x="521" y="781"/>
      <point x="613" y="781" type="curve" smooth="yes"/>
      <point x="728" y="781"/>
      <point x="771" y="723"/>
      <point x="771" y="552" type="curve" smooth="yes"/>
      <point x="771" y="0" type="line"/>
      <point x="1108" y="0" type="line"/>
      <point x="1108" y="698" type="line" smooth="yes"/>
      <point x="1108" y="944"/>
      <point x="940" y="1059"/>
      <point x="784" y="1059" type="curve" smooth="yes"/>
      <point x="639" y="1059"/>
      <point x="506" y="962"/>
      <point x="458" y="848" type="curve"/>
      <point x="458" y="1036" type="line"/>
      <point x="121" y="1036" type="line"/>
    </contour>
  </outline>
</glyph>
<glyph name="o" format="1">
  <advance width="1232"/>
  <unicode hex="006F"/>
  <outline>
    <contour>
      <point x="619" y="218" type="curve" smooth="yes"/>
      <point x="507" y="218"/>
      <point x="426" y="265"/>
      <point x="426" y="516" type="curve" smooth="yes"/>
      <point x="426" y="771"/>
      <point x="512" y="818"/>
      <point x="615" y="818" type="curve" smooth="yes"/>
      <point x="722" y="818"/>
      <point x="806" y="763"/>
      <point x="806" y="516" type="curve" smooth="yes"/>
      <point x="806" y="296"/>
      <point x="741" y="218"/>
    </contour>
    <contour>
      <point x="615" y="-26" type="curve" smooth="yes"/>
      <point x="967" y="-26"/>
      <point x="1152" y="168"/>
      <point x="1152" y="517" type="curve" smooth="yes"/>
      <point x="1152" y="868"/>
      <point x="967" y="1059"/>
      <point x="615" y="1059" type="curve" smooth="yes"/>
      <point x="263" y="1059"/>
      <point x="80" y="870"/>
      <point x="80" y="518" type="curve" smooth="yes"/>
      <point x="80" y="167"/>
      <point x="263" y="-26"/>
    </contour>
  </outline>
</glyph>
<glyph name="p" format="1">
  <advance width="1219"/>
  <unicode hex="0070"/>
  <outline>
    <contour>
      <point x="119" y="-391" type="line"/>
      <point x="456" y="-391" type="line"/>
      <point x="456" y="53" type="line"/>
      <point x="535" y="2"/>
      <point x="608" y="-22"/>
      <point x="713" y="-22" type="curve" smooth="yes"/>
      <point x="990" y="-22"/>
      <point x="1139" y="205"/>
      <point x="1139" y="525" type="curve" smooth="yes"/>
      <point x="1139" y="844"/>
      <point x="1048" y="1059"/>
      <point x="769" y="1059" type="curve" smooth="yes"/>
      <point x="638" y="1059"/>
      <point x="513" y="990"/>
      <point x="456" y="887" type="curve"/>
      <point x="456" y="1036" type="line"/>
      <point x="119" y="1036" type="line"/>
    </contour>
    <contour>
      <point x="582" y="224" type="curve" smooth="yes"/>
      <point x="518" y="224"/>
      <point x="474" y="234"/>
      <point x="456" y="247" type="curve"/>
      <point x="456" y="739" type="line"/>
      <point x="493" y="778"/>
      <point x="541" y="799"/>
      <point x="607" y="799" type="curve" smooth="yes"/>
      <point x="756" y="799"/>
      <point x="793" y="699"/>
      <point x="793" y="522" type="curve" smooth="yes"/>
      <point x="793" y="340"/>
      <point x="747" y="224"/>
    </contour>
  </outline>
</glyph>
<glyph name="q" format="1">
  <advance width="1220"/>
  <unicode hex="0071"/>
  <outline>
    <contour>
      <point x="765" y="-391" type="line"/>
      <point x="1102" y="-391" type="line"/>
      <point x="1102" y="1036" type="line"/>
      <point x="765" y="1036" type="line"/>
      <point x="765" y="915" type="line"/>
      <point x="720" y="1001"/>
      <point x="620" y="1059"/>
      <point x="517" y="1059" type="curve" smooth="yes"/>
      <point x="189" y="1059"/>
      <point x="81" y="844"/>
      <point x="81" y="525" type="curve" smooth="yes"/>
      <point x="81" y="205"/>
      <point x="230" y="-22"/>
      <point x="507" y="-22" type="curve" smooth="yes"/>
      <point x="614" y="-22"/>
      <point x="685" y="11"/>
      <point x="765" y="82" type="curve"/>
    </contour>
    <contour>
      <point x="639" y="224" type="curve" smooth="yes"/>
      <point x="474" y="224"/>
      <point x="427" y="340"/>
      <point x="427" y="522" type="curve" smooth="yes"/>
      <point x="427" y="699"/>
      <point x="466" y="799"/>
      <point x="615" y="799" type="curve" smooth="yes"/>
      <point x="681" y="799"/>
      <point x="728" y="787"/>
      <point x="765" y="767" type="curve"/>
      <point x="765" y="275" type="line"/>
      <point x="747" y="245"/>
      <point x="703" y="224"/>
    </contour>
  </outline>
</glyph>
<glyph name="r" format="1">
  <advance width="864.0"/>
  <unicode hex="0072"/>
  <outline>
    <contour>
      <point x="121.0" y="0.0" type="line"/>
      <point x="458.0" y="0.0" type="line"/>
      <point x="458.0" y="674.0" type="line"/>
      <point x="504.0" y="736.0"/>
      <point x="610.0" y="751.0"/>
      <point x="671.0" y="751.0" type="curve" smooth="yes"/>
      <point x="730.0" y="751.0"/>
      <point x="776.0" y="735.0"/>
      <point x="808.0" y="720.0" type="curve"/>
      <point x="860.0" y="1016.0" type="line"/>
      <point x="834.0" y="1029.0"/>
      <point x="792.0" y="1038.0"/>
      <point x="756.0" y="1038.0" type="curve" smooth="yes"/>
      <point x="638.0" y="1038.0"/>
      <point x="534.0" y="978.0"/>
      <point x="472.0" y="919.0" type="curve" smooth="yes"/>
      <point x="467.0" y="914.0"/>
      <point x="462.0" y="909.0"/>
      <point x="458.0" y="904.0" type="curve"/>
      <point x="458.0" y="1036.0" type="line"/>
      <point x="121.0" y="1036.0" type="line"/>
    </contour>
  </outline>
</glyph>
<glyph name="s" format="1">
  <advance width="1055.0"/>
  <unicode hex="0073"/>
  <outline>
    <contour>
      <point x="488.0" y="-24.0" type="curve" smooth="yes"/>
      <point x="807.0" y="-24.0"/>
      <point x="1005.0" y="120.0"/>
      <point x="1005.0" y="325.0" type="curve" smooth="yes"/>
      <point x="1005.0" y="522.0"/>
      <point x="901.0" y="591"/>
      <point x="635.0" y="649" type="curve" smooth="yes"/>
      <point x="452.0" y="689"/>
      <point x="429.0" y="694.0"/>
      <point x="429.0" y="743.0" type="curve" smooth="yes"/>
      <point x="429.0" y="792.0"/>
      <point x="490.0" y="828.0"/>
      <point x="587.0" y="828.0" type="curve" smooth="yes"/>
      <point x="707.0" y="828.0"/>
      <point x="802.0" y="784.0"/>
      <point x="870.0" y="742.0" type="curve"/>
      <point x="906.0" y="742.0" type="line"/>
      <point x="943.0" y="981.0" type="line"/>
      <point x="851.0" y="1027.0"/>
      <point x="727.0" y="1060.0"/>
      <point x="569.0" y="1060.0" type="curve" smooth="yes"/>
      <point x="272.0" y="1060.0"/>
      <point x="82.0" y="914.0"/>
      <point x="82.0" y="718.0" type="curve" smooth="yes"/>
      <point x="82.0" y="524.0"/>
      <point x="180.0" y="453"/>
      <point x="403.0" y="403" type="curve" smooth="yes"/>
      <point x="569.0" y="366"/>
      <point x="656.0" y="357"/>
      <point x="656.0" y="288" type="curve" smooth="yes"/>
      <point x="656.0" y="229"/>
      <point x="568.0" y="208.0"/>
      <point x="491.0" y="208.0" type="curve" smooth="yes"/>
      <point x="339.0" y="208.0"/>
      <point x="234.0" y="262.0"/>
      <point x="172.0" y="306.0" type="curve"/>
      <point x="122.0" y="306.0" type="line"/>
      <point x="84.0" y="71.0" type="line"/>
      <point x="186.0" y="14.0"/>
      <point x="337.0" y="-24.0"/>
    </contour>
  </outline>
</glyph>
<glyph name="t" format="1">
  <advance width="804"/>
  <unicode hex="0074"/>
  <outline>
    <contour>
      <point x="501" y="-13" type="curve" smooth="yes"/>
      <point x="611" y="-13"/>
      <point x="675" y="-8"/>
      <point x="741" y="5" type="curve"/>
      <point x="741" y="242" type="line"/>
      <point x="704" y="236"/>
      <point x="663" y="230"/>
      <point x="626" y="230" type="curve" smooth="yes"/>
      <point x="550" y="230"/>
      <point x="482" y="256"/>
      <point x="482" y="361" type="curve" smooth="yes"/>
      <point x="482" y="813" type="line"/>
      <point x="741" y="813" type="line"/>
      <point x="741" y="1036" type="line"/>
      <point x="482" y="1036" type="line"/>
      <point x="482" y="1362" type="line"/>
      <point x="145" y="1292" type="line"/>
      <point x="145" y="1036" type="line"/>
      <point x="21" y="1036" type="line"/>
      <point x="21" y="813" type="line"/>
      <point x="145" y="813" type="line"/>
      <point x="145" y="328" type="line" smooth="yes"/>
      <point x="145" y="90"/>
      <point x="252" y="-13"/>
    </contour>
  </outline>
</glyph>
<glyph name="u" format="1">
  <advance width="1209"/>
  <unicode hex="0075"/>
  <outline>
    <contour>
      <point x="439" y="-22" type="curve" smooth="yes"/>
      <point x="564" y="-22"/>
      <point x="690" y="33"/>
      <point x="754" y="162" type="curve"/>
      <point x="754" y="0" type="line"/>
      <point x="1091" y="0" type="line"/>
      <point x="1091" y="1036" type="line"/>
      <point x="754" y="1036" type="line"/>
      <point x="754" y="346" type="line"/>
      <point x="754" y="292"/>
      <point x="671" y="253"/>
      <point x="607" y="253" type="curve" smooth="yes"/>
      <point x="490" y="253"/>
      <point x="446" y="322"/>
      <point x="446" y="493" type="curve" smooth="yes"/>
      <point x="446" y="1036" type="line"/>
      <point x="99" y="1036" type="line"/>
      <point x="99" y="341" type="line" smooth="yes"/>
      <point x="99" y="95"/>
      <point x="271" y="-22"/>
    </contour>
  </outline>
</glyph>
<glyph name="w" format="1">
  <advance width="1705"/>
  <unicode hex="0077"/>
  <outline>
    <contour>
      <point x="318.0" y="0.0" type="line"/>
      <point x="672.0" y="0.0" type="line"/>
      <point x="852" y="688" type="line"/>
      <point x="854" y="688" type="line"/>
      <point x="1030.0" y="0.0" type="line"/>
      <point x="1387.0" y="0.0" type="line"/>
      <point x="1706.0" y="1036.0" type="line"/>
      <point x="1351.0" y="1036.0" type="line"/>
      <point x="1222.0" y="459.0" type="line"/>
      <point x="1212.0" y="423.0"/>
      <point x="1204.0" y="385.0"/>
      <point x="1197.0" y="349.0" type="curve"/>
      <point x="1190.0" y="369.0"/>
      <point x="1175.0" y="419.0"/>
      <point x="1162.0" y="468.0" type="curve" smooth="yes"/>
      <point x="1149.0" y="517.0"/>
      <point x="1009" y="1036"/>
      <point x="1009" y="1036" type="curve"/>
      <point x="716" y="1036" type="line"/>
      <point x="716" y="1036"/>
      <point x="592.0" y="634.0"/>
      <point x="536.0" y="431.0" type="curve"/>
      <point x="511.0" y="341.0" type="line"/>
      <point x="510.0" y="341.0" type="line"/>
      <point x="492.0" y="429.0" type="line" smooth="yes"/>
      <point x="479.0" y="488.0"/>
      <point x="358" y="1036"/>
      <point x="358" y="1036" type="curve"/>
      <point x="1.0" y="1036.0" type="line"/>
    </contour>
  </outline>
</glyph>
<glyph name="y" format="1">
  <advance width="1102"/>
  <unicode hex="0079"/>
  <outline>
    <contour>
      <point x="215" y="-392" type="curve"/>
      <point x="570" y="-392" type="line"/>
      <point x="571" y="-393"/>
      <point x="657" y="-236"/>
      <point x="705" y="-103" type="curve" smooth="yes"/>
      <point x="1121" y="1036" type="line"/>
      <point x="767" y="1036" type="line"/>
      <point x="573" y="398" type="line"/>
      <point x="359" y="1036" type="line"/>
      <point x="3" y="1036" type="line"/>
      <point x="392" y="24" type="line"/>
      <point x="335" y="-139"/>
      <point x="277" y="-270"/>
    </contour>
  </outline>
</glyph>
<glyph name="z" format="1">
  <advance width="1001"/>
  <unicode hex="007A"/>
  <outline>
    <contour>
      <point x="67" y="0" type="line"/>
      <point x="928" y="0" type="line"/>
      <point x="928" y="257" type="line"/>
      <point x="486" y="257" type="line"/>
      <point x="922" y="818" type="line"/>
      <point x="922" y="1036" type="line"/>
      <point x="94" y="1036" type="line"/>
      <point x="94" y="787" type="line"/>
      <point x="514" y="787" type="line"/>
      <point x="67" y="220" type="line"/>
    </contour>
  </outline>
</glyph>
<glyph name="cent" format="1">
  <advance width="1172"/>
  <unicode hex="00A2"/>
  <outline>
    <contour>
      <point x="569" y="-292" type="line"/>
      <point x="716" y="-292" type="line"/>
      <point x="716" y="1313" type="line"/>
      <point x="569" y="1313" type="line"/>
    </contour>
    <component base="c"/>
  </outline>
</glyph>
<glyph name="currency" format="1">
  <advance width="926"/>
  <unicode hex="00A4"/>
  <outline>
    <contour>
      <point x="133" y="253" type="line"/>
      <point x="227" y="348" type="line"/>
      <point x="280" y="307"/>
      <point x="373" y="273"/>
      <point x="468" y="273" type="curve" smooth="yes"/>
      <point x="562" y="273"/>
      <point x="647" y="304"/>
      <point x="704" y="348" type="curve"/>
      <point x="799" y="253" type="line"/>
      <point x="900" y="353" type="line"/>
      <point x="806" y="448" type="line"/>
      <point x="849" y="501"/>
      <point x="884" y="593"/>
      <point x="884" y="688" type="curve" smooth="yes"/>
      <point x="884" y="782"/>
      <point x="849" y="874"/>
      <point x="806" y="930" type="curve"/>
      <point x="900" y="1024" type="line"/>
      <point x="799" y="1123" type="line"/>
      <point x="704" y="1032" type="line"/>
      <point x="647" y="1075"/>
      <point x="562" y="1105"/>
      <point x="468" y="1105" type="curve" smooth="yes"/>
      <point x="373" y="1105"/>
      <point x="280" y="1073"/>
      <point x="227" y="1030" type="curve"/>
      <point x="133" y="1123" type="line"/>
      <point x="30" y="1024" type="line"/>
      <point x="124" y="930" type="line"/>
      <point x="80" y="874"/>
      <point x="49" y="782"/>
      <point x="49" y="688" type="curve" smooth="yes"/>
      <point x="49" y="594"/>
      <point x="81" y="501"/>
      <point x="124" y="450" type="curve"/>
      <point x="30" y="353" type="line"/>
    </contour>
    <contour>
      <point x="468" y="411" type="curve" smooth="yes"/>
      <point x="309" y="411"/>
      <point x="201" y="517"/>
      <point x="201" y="688" type="curve" smooth="yes"/>
      <point x="201" y="859"/>
      <point x="309" y="966"/>
      <point x="468" y="966" type="curve" smooth="yes"/>
      <point x="627" y="966"/>
      <point x="731" y="859"/>
      <point x="731" y="688" type="curve" smooth="yes"/>
      <point x="731" y="517"/>
      <point x="627" y="411"/>
    </contour>
  </outline>
</glyph>
<glyph name="dieresis" format="1">
  <advance width="836"/>
  <unicode hex="00A8"/>
  <outline>
    <contour>
      <point x="108" y="1176" type="line"/>
      <point x="352" y="1176" type="line"/>
      <point x="352" y="1442" type="line"/>
      <point x="108" y="1442" type="line"/>
    </contour>
    <contour>
      <point x="478" y="1176" type="line"/>
      <point x="721" y="1176" type="line"/>
      <point x="721" y="1442" type="line"/>
      <point x="478" y="1442" type="line"/>
    </contour>
  </outline>
</glyph>
<glyph name="guillemotleft" format="1">
  <advance width="1065"/>
  <unicode hex="00AB"/>
  <outline>
    <contour>
      <point x="557" y="135" type="line"/>
      <point x="557" y="418" type="line"/>
      <point x="369" y="594" type="line"/>
      <point x="557" y="775" type="line"/>
      <point x="557" y="1054" type="line"/>
      <point x="149" y="667" type="line"/>
      <point x="149" y="522" type="line"/>
    </contour>
    <contour>
      <point x="966" y="135" type="line"/>
      <point x="966" y="418" type="line"/>
      <point x="778" y="594" type="line"/>
      <point x="966" y="775" type="line"/>
      <point x="966" y="1054" type="line"/>
      <point x="557" y="667" type="line"/>
      <point x="557" y="522" type="line"/>
    </contour>
  </outline>
</glyph>
<glyph name="uni00AD" format="1">
  <advance width="786"/>
  <unicode hex="00AD"/>
  <outline>
    <contour>
      <point x="103" y="437" type="line"/>
      <point x="685" y="437" type="line"/>
      <point x="685" y="635" type="line"/>
      <point x="103" y="635" type="line"/>
    </contour>
  </outline>
</glyph>
<glyph name="acute" format="1">
  <advance width="845"/>
  <unicode hex="00B4"/>
  <outline>
    <contour>
      <point x="202" y="1169" type="line"/>
      <point x="437" y="1169" type="line"/>
      <point x="735" y="1516" type="line"/>
      <point x="404" y="1516" type="line"/>
    </contour>
  </outline>
</glyph>
<glyph name="periodcentered" format="1">
  <advance width="680"/>
  <unicode hex="00B7"/>
  <outline>
    <contour>
      <point x="347" y="397" type="curve" smooth="yes"/>
      <point x="461" y="397"/>
      <point x="554" y="491"/>
      <point x="554" y="603" type="curve" smooth="yes"/>
      <point x="554" y="716"/>
      <point x="461" y="809"/>
      <point x="347" y="809" type="curve" smooth="yes"/>
      <point x="235" y="809"/>
      <point x="141" y="716"/>
      <point x="141" y="603" type="curve" smooth="yes"/>
      <point x="141" y="491"/>
      <point x="235" y="397"/>
    </contour>
  </outline>
</glyph>
<glyph name="cedilla" format="1">
  <advance width="936"/>
  <unicode hex="00B8"/>
  <outline>
    <contour>
      <point x="406" y="-516" type="curve" smooth="yes"/>
      <point x="603" y="-516"/>
      <point x="716" y="-405"/>
      <point x="716" y="-279" type="curve" smooth="yes"/>
      <point x="716" y="-193"/>
      <point x="656" y="-97"/>
      <point x="472" y="-97" type="curve"/>
      <point x="512" y="2" type="line"/>
      <point x="408" y="2" type="line"/>
      <point x="341" y="-184" type="line"/>
      <point x="357" y="-187"/>
      <point x="376" y="-192"/>
      <point x="391" y="-196" type="curve"/>
      <point x="406" y="-193"/>
      <point x="418" y="-191"/>
      <point x="431" y="-191" type="curve" smooth="yes"/>
      <point x="495" y="-191"/>
      <point x="545" y="-229"/>
      <point x="545" y="-280" type="curve" smooth="yes"/>
      <point x="545" y="-337"/>
      <point x="495" y="-385"/>
      <point x="408" y="-385" type="curve" smooth="yes"/>
      <point x="367" y="-385"/>
      <point x="317" y="-367"/>
      <point x="301" y="-341" type="curve"/>
      <point x="300" y="-342"/>
      <point x="240" y="-341"/>
      <point x="240" y="-341" type="curve"/>
      <point x="214" y="-473" type="line"/>
      <point x="265" y="-497"/>
      <point x="355" y="-516"/>
    </contour>
  </outline>
</glyph>
<glyph name="onequarter" format="1">
  <advance width="1551"/>
  <unicode hex="00BC"/>
  <outline>
    <contour>
      <point x="1184" y="0" type="line"/>
      <point x="1391" y="0" type="line"/>
      <point x="1391" y="121" type="line"/>
      <point x="1470" y="121" type="line"/>
      <point x="1470" y="249" type="line"/>
      <point x="1391" y="249" type="line"/>
      <point x="1391" y="819" type="line"/>
      <point x="1116" y="819" type="line"/>
      <point x="836" y="249" type="line"/>
      <point x="836" y="121" type="line"/>
      <point x="1184" y="121" type="line"/>
    </contour>
    <contour>
      <point x="338" y="0" type="line"/>
      <point x="465" y="0" type="line"/>
      <point x="1272" y="1430" type="line"/>
      <point x="1144" y="1430" type="line"/>
    </contour>
    <contour>
      <point x="999" y="249" type="line"/>
      <point x="1184" y="645" type="line"/>
      <point x="1184" y="249" type="line"/>
    </contour>
    <component base="one.superior"/>
  </outline>
</glyph>
<glyph name="onehalf" format="1">
  <advance width="1624"/>
  <unicode hex="00BD"/>
  <outline>
    <contour>
      <point x="338" y="0" type="line"/>
      <point x="465" y="0" type="line"/>
      <point x="1272" y="1430" type="line"/>
      <point x="1144" y="1430" type="line"/>
    </contour>
    <component base="one.superior"/>
    <component base="two.superior" xOffset="900" yOffset="-555"/>
  </outline>
</glyph>
<glyph name="multiply" format="1">
  <advance width="1158"/>
  <unicode hex="00D7"/>
  <outline>
    <contour>
      <point x="235" y="41" type="line"/>
      <point x="581" y="388" type="line"/>
      <point x="924" y="41" type="line"/>
      <point x="1032" y="148" type="line"/>
      <point x="685" y="490" type="line"/>
      <point x="1032" y="836" type="line"/>
      <point x="924" y="944" type="line"/>
      <point x="581" y="597" type="line"/>
      <point x="235" y="944" type="line"/>
      <point x="131" y="836" type="line"/>
      <point x="477" y="490" type="line"/>
      <point x="131" y="148" type="line"/>
    </contour>
  </outline>
</glyph>
<glyph name="Oslash" format="1">
  <advance width="1512"/>
  <unicode hex="00D8"/>
  <outline>
    <contour>
      <point x="759" y="-24" type="curve" smooth="yes"/>
      <point x="1218" y="-24"/>
      <point x="1444" y="253"/>
      <point x="1444" y="740" type="curve" smooth="yes"/>
      <point x="1444" y="1004"/>
      <point x="1379" y="1206"/>
      <point x="1248" y="1334" type="curve"/>
      <point x="1356" y="1504" type="line"/>
      <point x="1159" y="1504" type="line"/>
      <point x="1113" y="1430" type="line"/>
      <point x="1016" y="1478"/>
      <point x="899" y="1504"/>
      <point x="759" y="1504" type="curve" smooth="yes"/>
      <point x="302" y="1504"/>
      <point x="71" y="1230"/>
      <point x="71" y="740" type="curve" smooth="yes"/>
      <point x="71" y="466"/>
      <point x="145" y="256"/>
      <point x="290" y="128" type="curve"/>
      <point x="194" y="-24" type="line"/>
      <point x="387" y="-24" type="line"/>
      <point x="428" y="40" type="line"/>
      <point x="522" y="-2"/>
      <point x="631" y="-24"/>
    </contour>
    <contour>
      <point x="498" y="459" type="line"/>
      <point x="474" y="534"/>
      <point x="464" y="628"/>
      <point x="464" y="740" type="curve" smooth="yes"/>
      <point x="464" y="1041"/>
      <point x="534" y="1215"/>
      <point x="760" y="1215" type="curve" smooth="yes"/>
      <point x="836" y="1215"/>
      <point x="894" y="1194"/>
      <point x="938" y="1154" type="curve"/>
    </contour>
    <contour>
      <point x="760" y="264" type="curve" smooth="yes"/>
      <point x="694" y="264"/>
      <point x="642" y="278"/>
      <point x="599" y="308" type="curve"/>
      <point x="1028" y="988" type="line"/>
      <point x="1044" y="919"/>
      <point x="1052" y="835"/>
      <point x="1052" y="740" type="curve" smooth="yes"/>
      <point x="1052" y="452"/>
      <point x="987" y="264"/>
    </contour>
  </outline>
</glyph>
<glyph name="Thorn" format="1">
  <advance width="1384"/>
  <unicode hex="00DE"/>
  <outline>
    <contour>
      <point x="148" y="0" type="line"/>
      <point x="533" y="0" type="line"/>
      <point x="533" y="334" type="line"/>
      <point x="759" y="334" type="line" smooth="yes"/>
      <point x="1126" y="334"/>
      <point x="1345" y="548"/>
      <point x="1345" y="845" type="curve" smooth="yes"/>
      <point x="1345" y="1186"/>
      <point x="1081" y="1315"/>
      <point x="782" y="1315" type="curve" smooth="yes"/>
      <point x="533" y="1315" type="line"/>
      <point x="533" y="1481" type="line"/>
      <point x="148" y="1481" type="line"/>
    </contour>
    <contour>
      <point x="533" y="615" type="line"/>
      <point x="533" y="1032" type="line"/>
      <point x="637" y="1032" type="line" smooth="yes"/>
      <point x="770" y="1032"/>
      <point x="953" y="1028"/>
      <point x="953" y="841" type="curve" smooth="yes"/>
      <point x="953" y="627"/>
      <point x="766" y="615"/>
      <point x="564" y="615" type="curve" smooth="yes"/>
    </contour>
  </outline>
</glyph>
<glyph name="ae" format="1">
  <advance width="1769"/>
  <unicode hex="00E6"/>
  <outline>
    <contour>
      <point x="457" y="-22" type="curve" smooth="yes"/>
      <point x="610" y="-22"/>
      <point x="775" y="51"/>
      <point x="858" y="148" type="curve"/>
      <point x="936" y="68"/>
      <point x="1038" y="-26"/>
      <point x="1272" y="-26" type="curve" smooth="yes"/>
      <point x="1513" y="-26"/>
      <point x="1625" y="33"/>
      <point x="1712" y="90" type="curve"/>
      <point x="1660" y="331" type="line"/>
      <point x="1613" y="332" type="line"/>
      <point x="1560" y="262"/>
      <point x="1425" y="218"/>
      <point x="1320" y="218" type="curve" smooth="yes"/>
      <point x="1161" y="218"/>
      <point x="1040" y="271"/>
      <point x="1027" y="434" type="curve"/>
      <point x="1729" y="434" type="line"/>
      <point x="1729" y="581" type="line" smooth="yes"/>
      <point x="1729" y="884"/>
      <point x="1551" y="1063"/>
      <point x="1234" y="1063" type="curve" smooth="yes"/>
      <point x="1109" y="1063"/>
      <point x="958" y="1019"/>
      <point x="884" y="905" type="curve"/>
      <point x="807" y="1030"/>
      <point x="673" y="1061"/>
      <point x="496" y="1061" type="curve" smooth="yes"/>
      <point x="342" y="1061"/>
      <point x="145" y="1013"/>
      <point x="79" y="966" type="curve"/>
      <point x="136" y="739" type="line"/>
      <point x="218" y="787"/>
      <point x="367" y="825"/>
      <point x="452" y="825" type="curve" smooth="yes"/>
      <point x="645" y="825"/>
      <point x="685" y="751"/>
      <point x="685" y="657" type="curve"/>
      <point x="683" y="657"/>
      <point x="590" y="658"/>
      <point x="544" y="647" type="curve"/>
      <point x="265" y="627"/>
      <point x="31" y="543"/>
      <point x="31" y="299" type="curve" smooth="yes"/>
      <point x="31" y="93"/>
      <point x="179" y="-22"/>
    </contour>
    <contour>
      <point x="527" y="210" type="curve" smooth="yes"/>
      <point x="410" y="210"/>
      <point x="369" y="250"/>
      <point x="369" y="325" type="curve" smooth="yes"/>
      <point x="369" y="444"/>
      <point x="513" y="441"/>
      <point x="694" y="452" type="curve"/>
      <point x="700" y="360"/>
      <point x="714" y="210"/>
    </contour>
    <contour>
      <point x="1025" y="638" type="line"/>
      <point x="1024" y="765"/>
      <point x="1093" y="843"/>
      <point x="1213" y="843" type="curve" smooth="yes"/>
      <point x="1323" y="843"/>
      <point x="1390" y="776"/>
      <point x="1392" y="638" type="curve"/>
    </contour>
  </outline>
</glyph>
<glyph name="oslash" format="1">
  <advance width="1163"/>
  <unicode hex="00F8"/>
  <outline>
    <contour>
      <point x="582" y="-26" type="curve" smooth="yes"/>
      <point x="934" y="-26"/>
      <point x="1118" y="168"/>
      <point x="1118" y="517" type="curve" smooth="yes"/>
      <point x="1118" y="714"/>
      <point x="1062" y="861"/>
      <point x="948" y="951" type="curve"/>
      <point x="1081" y="1154" type="line"/>
      <point x="918" y="1154" type="line"/>
      <point x="830" y="1017" type="line"/>
      <point x="760" y="1045"/>
      <point x="677" y="1059"/>
      <point x="582" y="1059" type="curve" smooth="yes"/>
      <point x="230" y="1059"/>
      <point x="47" y="870"/>
      <point x="47" y="518" type="curve" smooth="yes"/>
      <point x="47" y="319"/>
      <point x="106" y="173"/>
      <point x="220" y="81" type="curve"/>
      <point x="75" y="-143" type="line"/>
      <point x="234" y="-143" type="line"/>
      <point x="338" y="15" type="line"/>
      <point x="408" y="-12"/>
      <point x="488" y="-26"/>
    </contour>
    <contour>
      <point x="406" y="366" type="line"/>
      <point x="396" y="405"/>
      <point x="392" y="454"/>
      <point x="392" y="516" type="curve" smooth="yes"/>
      <point x="392" y="771"/>
      <point x="479" y="818"/>
      <point x="582" y="818" type="curve" smooth="yes"/>
      <point x="618" y="818"/>
      <point x="653" y="811"/>
      <point x="683" y="792" type="curve"/>
    </contour>
    <contour>
      <point x="585" y="218" type="curve" smooth="yes"/>
      <point x="548" y="218"/>
      <point x="514" y="224"/>
      <point x="485" y="240" type="curve"/>
      <point x="759" y="661" type="line"/>
      <point x="769" y="622"/>
      <point x="771" y="575"/>
      <point x="771" y="516" type="curve" smooth="yes"/>
      <point x="771" y="296"/>
      <point x="707" y="218"/>
    </contour>
  </outline>
</glyph>
<glyph name="dotlessi" format="1">
  <advance width="577"/>
  <unicode hex="0131"/>
  <outline>
    <contour>
      <point x="122" y="0" type="line"/>
      <point x="459" y="0" type="line"/>
      <point x="459" y="1036" type="line"/>
      <point x="122" y="1036" type="line"/>
    </contour>
  </outline>
</glyph>
<glyph name="Lslash" format="1">
  <advance width="1219"/>
  <unicode hex="0141"/>
  <outline>
    <contour>
      <point x="148" y="0" type="line"/>
      <point x="1179" y="0" type="line"/>
      <point x="1179" y="286" type="line"/>
      <point x="533" y="286" type="line"/>
      <point x="533" y="748" type="line"/>
      <point x="777" y="920" type="line"/>
      <point x="777" y="1141" type="line"/>
      <point x="533" y="968" type="line"/>
      <point x="533" y="1481" type="line"/>
      <point x="148" y="1481" type="line"/>
      <point x="148" y="699" type="line"/>
      <point x="13" y="604" type="line"/>
      <point x="13" y="385" type="line"/>
      <point x="148" y="478" type="line"/>
    </contour>
  </outline>
</glyph>
<glyph name="dotlessj" format="1">
  <advance width="655"/>
  <unicode hex="0237"/>
  <outline>
    <contour>
      <point x="138" y="-396" type="curve" smooth="yes"/>
      <point x="369" y="-396"/>
      <point x="531" y="-276"/>
      <point x="531" y="-56" type="curve" smooth="yes"/>
      <point x="531" y="1036" type="line"/>
      <point x="193" y="1036" type="line"/>
      <point x="193" y="86" type="line" smooth="yes"/>
      <point x="193" y="-118"/>
      <point x="128" y="-148"/>
      <point x="26" y="-148" type="curve" smooth="yes"/>
      <point x="-5" y="-148"/>
      <point x="-40" y="-143"/>
      <point x="-76" y="-140" type="curve"/>
      <point x="-76" y="-382" type="line"/>
      <point x="-44" y="-385"/>
      <point x="35" y="-396"/>
    </contour>
  </outline>
</glyph>
<glyph name="breve" format="1">
  <advance width="842"/>
  <unicode hex="02D8"/>
  <outline>
    <contour>
      <point x="426" y="1151" type="curve" smooth="yes"/>
      <point x="638" y="1151"/>
      <point x="772" y="1266"/>
      <point x="775" y="1481" type="curve"/>
      <point x="594" y="1481" type="line"/>
      <point x="587" y="1384"/>
      <point x="537" y="1317"/>
      <point x="426" y="1317" type="curve" smooth="yes"/>
      <point x="302" y="1317"/>
      <point x="266" y="1387"/>
      <point x="257" y="1481" type="curve"/>
      <point x="77" y="1481" type="line"/>
      <point x="80" y="1266"/>
      <point x="198" y="1151"/>
    </contour>
  </outline>
</glyph>
<glyph name="ring" format="1">
  <advance width="685"/>
  <unicode hex="02DA"/>
  <outline>
    <contour>
      <point x="342" y="249" type="curve" smooth="yes"/>
      <point x="227" y="249"/>
      <point x="133" y="338"/>
      <point x="133" y="453" type="curve" smooth="yes"/>
      <point x="133" y="563"/>
      <point x="226" y="657"/>
      <point x="342" y="657" type="curve" smooth="yes"/>
      <point x="458" y="657"/>
      <point x="551" y="563"/>
      <point x="551" y="453" type="curve" smooth="yes"/>
      <point x="551" y="341"/>
      <point x="459" y="249"/>
    </contour>
    <contour>
      <point x="342" y="142" type="curve" smooth="yes"/>
      <point x="524" y="142"/>
      <point x="670" y="279"/>
      <point x="670" y="453" type="curve" smooth="yes"/>
      <point x="670" y="626"/>
      <point x="524" y="762"/>
      <point x="342" y="762" type="curve" smooth="yes"/>
      <point x="161" y="762"/>
      <point x="15" y="627"/>
      <point x="15" y="453" type="curve" smooth="yes"/>
      <point x="15" y="280"/>
      <point x="160" y="142"/>
    </contour>
  </outline>
</glyph>
<glyph name="ogonek" format="1">
  <advance width="846"/>
  <unicode hex="02DB"/>
  <outline>
    <contour>
      <point x="476" y="-408" type="curve"/>
      <point x="538" y="-413"/>
      <point x="605" y="-400"/>
      <point x="669" y="-377" type="curve"/>
      <point x="659" y="-246" type="line"/>
      <point x="637" y="-255"/>
      <point x="596" y="-273"/>
      <point x="540" y="-273" type="curve" smooth="yes"/>
      <point x="463" y="-273"/>
      <point x="419" y="-223"/>
      <point x="422" y="-140" type="curve"/>
      <point x="426" y="-93"/>
      <point x="449" y="-40"/>
      <point x="485" y="5" type="curve"/>
      <point x="339" y="5" type="line"/>
      <point x="290" y="-53"/>
      <point x="245" y="-132"/>
      <point x="255" y="-234" type="curve"/>
      <point x="271" y="-336"/>
      <point x="357" y="-408"/>
    </contour>
  </outline>
</glyph>
<glyph name="tilde" format="1">
  <advance width="1181"/>
  <unicode hex="02DC"/>
  <outline>
    <contour>
      <point x="822" y="196" type="curve" smooth="yes"/>
      <point x="986" y="196"/>
      <point x="1028.94348502" y="272.026681583"/>
      <point x="1032" y="541" type="curve"/>
      <point x="835" y="541" type="line"/>
      <point x="835" y="453"/>
      <point x="826" y="436"/>
      <point x="786" y="436" type="curve" smooth="yes"/>
      <point x="741" y="436"/>
      <point x="473" y="541"/>
      <point x="368" y="541" type="curve" smooth="yes"/>
      <point x="228" y="541"/>
      <point x="149" y="442"/>
      <point x="149" y="196" type="curve" smooth="yes"/>
      <point x="149.0" y="193.034482759"/>
      <point x="344.0" y="196.0"/>
      <point x="344" y="196" type="curve"/>
      <point x="344" y="282"/>
      <point x="368" y="293"/>
      <point x="410" y="293" type="curve" smooth="yes"/>
      <point x="478" y="293"/>
      <point x="706" y="196"/>
    </contour>
  </outline>
</glyph>
<glyph name="Delta" format="1">
  <advance width="1097"/>
  <unicode hex="0394"/>
  <outline>
    <contour>
      <point x="19" y="0" type="line"/>
      <point x="1077" y="0" type="line"/>
      <point x="1077" y="164" type="line"/>
      <point x="693" y="1378" type="line"/>
      <point x="416" y="1378" type="line"/>
      <point x="19" y="161" type="line"/>
    </contour>
    <contour>
      <point x="270" y="186" type="line"/>
      <point x="270" y="186"/>
      <point x="531" y="1059"/>
      <point x="547" y="1136" type="curve"/>
      <point x="552" y="1136" type="line"/>
      <point x="568" y="1047"/>
      <point x="813" y="186"/>
      <point x="813" y="186" type="curve"/>
    </contour>
  </outline>
</glyph>
<glyph name="Omega" format="1">
  <advance width="1427"/>
  <unicode hex="03A9"/>
  <outline>
    <contour>
      <point x="77" y="0" type="line"/>
      <point x="615" y="0" type="line"/>
      <point x="615" y="200" type="line"/>
      <point x="449" y="340"/>
      <point x="374" y="504"/>
      <point x="374" y="721" type="curve" smooth="yes"/>
      <point x="374" y="978"/>
      <point x="518" y="1146"/>
      <point x="720" y="1146" type="curve" smooth="yes"/>
      <point x="923" y="1146"/>
      <point x="1055" y="960"/>
      <point x="1055" y="731" type="curve" smooth="yes"/>
      <point x="1055" y="499"/>
      <point x="963" y="322"/>
      <point x="812" y="200" type="curve"/>
      <point x="812" y="0" type="line"/>
      <point x="1350" y="0" type="line"/>
      <point x="1350" y="217" type="line"/>
      <point x="1116" y="217" type="line"/>
      <point x="1043" y="218" type="line"/>
      <point x="1230" y="338"/>
      <point x="1343" y="530"/>
      <point x="1343" y="777" type="curve" smooth="yes"/>
      <point x="1343" y="1108"/>
      <point x="1100" y="1375"/>
      <point x="716" y="1375" type="curve" smooth="yes"/>
      <point x="349" y="1375"/>
      <point x="87" y="1125"/>
      <point x="87" y="767" type="curve" smooth="yes"/>
      <point x="87" y="521"/>
      <point x="201" y="314"/>
      <point x="378" y="217" type="curve"/>
      <point x="77" y="217" type="line"/>
    </contour>
  </outline>
</glyph>
<glyph name="pi" format="1">
  <advance width="1215"/>
  <unicode hex="03C0"/>
  <outline>
    <contour>
      <point x="157" y="0" type="curve"/>
      <point x="417" y="0" type="line"/>
      <point x="443" y="74"/>
      <point x="460" y="183"/>
      <point x="466" y="319" type="curve"/>
      <point x="475" y="478"/>
      <point x="481" y="641"/>
      <point x="483" y="782" type="curve"/>
      <point x="725" y="782" type="line"/>
      <point x="725" y="326" type="line" smooth="yes"/>
      <point x="725" y="139"/>
      <point x="787" y="32"/>
      <point x="922" y="10" type="curve"/>
      <point x="962" y="1"/>
      <point x="999" y="2"/>
      <point x="1035" y="9" type="curve"/>
      <point x="1100" y="155" type="line"/>
      <point x="1076" y="166"/>
      <point x="1053" y="189"/>
      <point x="1035" y="240" type="curve"/>
      <point x="1000" y="251"/>
      <point x="983" y="292"/>
      <point x="983" y="361" type="curve" smooth="yes"/>
      <point x="983" y="782" type="line"/>
      <point x="1161" y="782" type="line"/>
      <point x="1166" y="984" type="line"/>
      <point x="328" y="984" type="line" smooth="yes"/>
      <point x="174" y="984"/>
      <point x="77" y="973"/>
      <point x="11" y="925" type="curve"/>
      <point x="20" y="725" type="line"/>
      <point x="81" y="762"/>
      <point x="146" y="782"/>
      <point x="227" y="782" type="curve"/>
      <point x="226" y="642"/>
      <point x="221" y="487"/>
      <point x="212" y="332" type="curve" smooth="yes"/>
      <point x="205" y="197"/>
      <point x="187" y="85"/>
    </contour>
  </outline>
</glyph>
<glyph name="quoteleft" format="1">
  <advance width="530"/>
  <unicode hex="2018"/>
  <outline>
    <contour>
      <point x="208" y="949" type="line"/>
      <point x="443" y="949" type="line"/>
      <point x="338" y="1481" type="line"/>
      <point x="22" y="1481" type="line"/>
    </contour>
  </outline>
</glyph>
<glyph name="quotesinglbase" format="1">
  <advance width="530"/>
  <unicode hex="201A"/>
  <outline>
    <contour>
      <point x="90" y="-244" type="line"/>
      <point x="332" y="-244" type="line"/>
      <point x="332" y="-244"/>
      <point x="474" y="158"/>
      <point x="504" y="243" type="curve"/>
      <point x="190" y="243" type="line"/>
    </contour>
  </outline>
</glyph>
<glyph name="quotedblleft" format="1">
  <advance width="889"/>
  <unicode hex="201C"/>
  <outline>
    <contour>
      <point x="208" y="949" type="line"/>
      <point x="443" y="949" type="line"/>
      <point x="338" y="1481" type="line"/>
      <point x="22" y="1481" type="line"/>
    </contour>
    <contour>
      <point x="599" y="949" type="line"/>
      <point x="833" y="949" type="line"/>
      <point x="729" y="1481" type="line"/>
      <point x="413" y="1481" type="line"/>
    </contour>
  </outline>
</glyph>
<glyph name="quotedblright" format="1">
  <advance width="888"/>
  <unicode hex="201D"/>
  <outline>
    <contour>
      <point x="92" y="992" type="line"/>
      <point x="309" y="992" type="line"/>
      <point x="505" y="1481" type="line"/>
      <point x="191" y="1481" type="line"/>
    </contour>
    <contour>
      <point x="492" y="992" type="line"/>
      <point x="709" y="992" type="line"/>
      <point x="905" y="1481" type="line"/>
      <point x="592" y="1481" type="line"/>
    </contour>
  </outline>
</glyph>
<glyph name="dagger" format="1">
  <advance width="1183"/>
  <unicode hex="2020"/>
  <outline>
    <contour>
      <point x="462" y="-49" type="line"/>
      <point x="720" y="-49" type="line"/>
      <point x="720" y="819" type="line"/>
      <point x="1063" y="819" type="line"/>
      <point x="1063" y="1027" type="line"/>
      <point x="721" y="1027" type="line"/>
      <point x="721" y="1438" type="line"/>
      <point x="465" y="1438" type="line"/>
      <point x="465" y="1029" type="line"/>
      <point x="122" y="1029" type="line"/>
      <point x="122" y="822" type="line"/>
      <point x="462" y="822" type="line"/>
    </contour>
  </outline>
</glyph>
<glyph name="bullet" format="1">
  <advance width="1242"/>
  <unicode hex="2022"/>
  <outline>
    <contour>
      <point x="622" y="205" type="curve" smooth="yes"/>
      <point x="879" y="205"/>
      <point x="1095" y="409"/>
      <point x="1095" y="656" type="curve" smooth="yes"/>
      <point x="1095" y="902"/>
      <point x="881" y="1105"/>
      <point x="622" y="1105" type="curve" smooth="yes"/>
      <point x="367" y="1105"/>
      <point x="150" y="902"/>
      <point x="150" y="656" type="curve" smooth="yes"/>
      <point x="150" y="410"/>
      <point x="365" y="205"/>
    </contour>
  </outline>
</glyph>
<glyph name="guilsinglright" format="1">
  <advance width="751"/>
  <unicode hex="203A"/>
  <outline>
    <contour>
      <point x="149" y="135" type="line"/>
      <point x="149" y="135"/>
      <point x="549" y="455"/>
      <point x="652" y="540" type="curve"/>
      <point x="652" y="656" type="line"/>
      <point x="549" y="732"/>
      <point x="149" y="1054"/>
      <point x="149" y="1054" type="curve"/>
      <point x="149" y="769" type="line"/>
      <point x="225" y="708"/>
      <point x="297" y="654"/>
      <point x="374" y="595" type="curve"/>
      <point x="149" y="413" type="line"/>
    </contour>
  </outline>
</glyph>
<glyph name="fraction" format="1">
  <advance width="726"/>
  <unicode hex="2044"/>
  <outline>
    <contour>
      <point x="-173" y="-13" type="line"/>
      <point x="89" y="-13" type="line"/>
      <point x="889" y="1409" type="line"/>
      <point x="629" y="1409" type="line"/>
    </contour>
  </outline>
</glyph>
<glyph name="trademark" format="1">
  <advance width="1764"/>
  <unicode hex="2122"/>
  <outline>
    <contour>
      <point x="778" y="767" type="line"/>
      <point x="957" y="767" type="line"/>
      <point x="957" y="1320" type="line"/>
      <point x="976" y="1320" type="line"/>
      <point x="1164" y="869" type="line"/>
      <point x="1292" y="869" type="line"/>
      <point x="1481" y="1315" type="line"/>
      <point x="1495" y="1315" type="line"/>
      <point x="1495" y="767" type="line"/>
      <point x="1673" y="767" type="line"/>
      <point x="1673" y="1483" type="line"/>
      <point x="1392" y="1483" type="line"/>
      <point x="1230" y="1073" type="line"/>
      <point x="1073" y="1483" type="line"/>
      <point x="778" y="1483" type="line"/>
    </contour>
    <contour>
      <point x="269" y="767" type="line"/>
      <point x="459" y="767" type="line"/>
      <point x="459" y="1326" type="line"/>
      <point x="667" y="1326" type="line"/>
      <point x="667" y="1483" type="line"/>
      <point x="61" y="1483" type="line"/>
      <point x="61" y="1326" type="line"/>
      <point x="269" y="1326" type="line"/>
    </contour>
  </outline>
</glyph>
<glyph name="estimated" format="1">
  <advance width="1688"/>
  <unicode hex="212E"/>
  <outline>
    <contour>
      <point x="843" y="-10" type="curve" smooth="yes"/>
      <point x="1094" y="-10"/>
      <point x="1319" y="95"/>
      <point x="1457" y="260" type="curve"/>
      <point x="1348" y="260" type="line"/>
      <point x="1224" y="119"/>
      <point x="1046" y="30"/>
      <point x="845" y="30" type="curve" smooth="yes"/>
      <point x="658" y="30"/>
      <point x="489" y="109"/>
      <point x="367" y="235" type="curve"/>
      <point x="357" y="246"/>
      <point x="352" y="263"/>
      <point x="352" y="279" type="curve" smooth="yes"/>
      <point x="352" y="661" type="line" smooth="yes"/>
      <point x="352" y="667"/>
      <point x="357" y="669"/>
      <point x="362" y="669" type="curve" smooth="yes"/>
      <point x="1621" y="669" type="line"/>
      <point x="1621" y="687" type="line" smooth="yes"/>
      <point x="1621" y="1076"/>
      <point x="1275" y="1389"/>
      <point x="843" y="1389" type="curve" smooth="yes"/>
      <point x="414" y="1389"/>
      <point x="66" y="1076"/>
      <point x="66" y="687" type="curve" smooth="yes"/>
      <point x="66" y="302"/>
      <point x="414" y="-10"/>
    </contour>
    <contour>
      <point x="362" y="706" type="line" smooth="yes"/>
      <point x="357" y="706"/>
      <point x="352" y="715"/>
      <point x="352" y="720" type="curve" smooth="yes"/>
      <point x="352" y="1092" type="line" smooth="yes"/>
      <point x="352" y="1112"/>
      <point x="358" y="1130"/>
      <point x="369" y="1141" type="curve" smooth="yes"/>
      <point x="491" y="1265"/>
      <point x="661" y="1346"/>
      <point x="845" y="1346" type="curve" smooth="yes"/>
      <point x="1032" y="1346"/>
      <point x="1194" y="1267"/>
      <point x="1318" y="1146" type="curve" smooth="yes"/>
      <point x="1329" y="1135"/>
      <point x="1336" y="1117"/>
      <point x="1336" y="1101" type="curve" smooth="yes"/>
      <point x="1336" y="720" type="line" smooth="yes"/>
      <point x="1336" y="715"/>
      <point x="1334" y="706"/>
      <point x="1329" y="706" type="curve" smooth="yes"/>
    </contour>
  </outline>
</glyph>
<glyph name="partialdiff" format="1">
  <advance width="1104"/>
  <unicode hex="2202"/>
  <outline>
    <contour>
      <point x="454" y="-16" type="curve" smooth="yes"/>
      <point x="795" y="-16"/>
      <point x="997" y="267"/>
      <point x="1042" y="713" type="curve"/>
      <point x="1051" y="781"/>
      <point x="1053" y="848"/>
      <point x="1050" y="910" type="curve" smooth="yes"/>
      <point x="1035" y="1262"/>
      <point x="879" y="1440"/>
      <point x="608" y="1456" type="curve" smooth="yes"/>
      <point x="472" y="1465"/>
      <point x="365" y="1429"/>
      <point x="286" y="1384" type="curve"/>
      <point x="265" y="1180" type="line"/>
      <point x="341" y="1226"/>
      <point x="434" y="1267"/>
      <point x="553" y="1245" type="curve"/>
      <point x="701" y="1221"/>
      <point x="779" y="1085"/>
      <point x="779" y="871" type="curve" smooth="yes"/>
      <point x="779" y="861"/>
      <point x="779" y="840"/>
      <point x="778" y="822" type="curve"/>
      <point x="774" y="822" type="line"/>
      <point x="729" y="896"/>
      <point x="644" y="959"/>
      <point x="522" y="959" type="curve" smooth="yes"/>
      <point x="256" y="959"/>
      <point x="56" y="715"/>
      <point x="56" y="399" type="curve" smooth="yes"/>
      <point x="56" y="161"/>
      <point x="203" y="-16"/>
    </contour>
    <contour>
      <point x="483" y="190" type="curve" smooth="yes"/>
      <point x="384" y="190"/>
      <point x="326" y="271"/>
      <point x="326" y="406" type="curve" smooth="yes"/>
      <point x="326" y="590"/>
      <point x="435" y="767"/>
      <point x="575" y="767" type="curve" smooth="yes"/>
      <point x="665" y="767"/>
      <point x="724" y="702"/>
      <point x="748" y="615" type="curve"/>
      <point x="722" y="383"/>
      <point x="621" y="190"/>
    </contour>
  </outline>
</glyph>
<glyph name="product" format="1">
  <advance width="1471"/>
  <unicode hex="220F"/>
  <outline>
    <contour>
      <point x="155" y="-266" type="line"/>
      <point x="471" y="-266" type="line"/>
      <point x="471" y="1175" type="line"/>
      <point x="1012" y="1175" type="line"/>
      <point x="1012" y="-266" type="line"/>
      <point x="1328" y="-266" type="line"/>
      <point x="1328" y="1430" type="line"/>
      <point x="155" y="1430" type="line"/>
    </contour>
  </outline>
</glyph>
<glyph name="summation" format="1">
  <advance width="1184"/>
  <unicode hex="2211"/>
  <outline>
    <contour>
      <point x="87" y="0" type="line"/>
      <point x="1105" y="0" type="line"/>
      <point x="1105" y="224" type="line"/>
      <point x="418" y="224" type="line"/>
      <point x="870" y="797" type="line"/>
      <point x="452" y="1260" type="line"/>
      <point x="1075" y="1260" type="line"/>
      <point x="1075" y="1481" type="line"/>
      <point x="108" y="1481" type="line"/>
      <point x="108" y="1317" type="line"/>
      <point x="593" y="780" type="line"/>
      <point x="87" y="155" type="line"/>
    </contour>
  </outline>
</glyph>
<glyph name="minus" format="1">
  <advance width="1158"/>
  <unicode hex="2212"/>
  <outline>
    <contour>
      <point x="90" y="385" type="line"/>
      <point x="1073" y="385" type="line"/>
      <point x="1073" y="641" type="line"/>
      <point x="90" y="641" type="line"/>
    </contour>
  </outline>
</glyph>
<glyph name="infinity" format="1">
  <advance width="1504"/>
  <unicode hex="221E"/>
  <outline>
    <contour>
      <point x="1101" y="204" type="curve" smooth="yes"/>
      <point x="1285" y="204"/>
      <point x="1437" y="355"/>
      <point x="1437" y="555" type="curve" smooth="yes"/>
      <point x="1437" y="763"/>
      <point x="1299" y="903"/>
      <point x="1105" y="904" type="curve" smooth="yes"/>
      <point x="956" y="904"/>
      <point x="846" y="814"/>
      <point x="756" y="683" type="curve"/>
      <point x="664" y="826"/>
      <point x="554" y="909"/>
      <point x="411" y="909" type="curve" smooth="yes"/>
      <point x="221" y="909"/>
      <point x="74" y="756"/>
      <point x="74" y="562" type="curve" smooth="yes"/>
      <point x="74" y="352"/>
      <point x="218" y="210"/>
      <point x="408" y="210" type="curve" smooth="yes"/>
      <point x="551" y="210"/>
      <point x="659" y="291"/>
      <point x="754" y="431" type="curve"/>
      <point x="856" y="274"/>
      <point x="968" y="204"/>
    </contour>
    <contour>
      <point x="429" y="377" type="curve" smooth="yes"/>
      <point x="326" y="377"/>
      <point x="253" y="453"/>
      <point x="253" y="558" type="curve" smooth="yes"/>
      <point x="253" y="663"/>
      <point x="322" y="745"/>
      <point x="425" y="745" type="curve" smooth="yes"/>
      <point x="522" y="745"/>
      <point x="598" y="671"/>
      <point x="670" y="556" type="curve"/>
      <point x="599" y="448"/>
      <point x="523" y="377"/>
    </contour>
    <contour>
      <point x="1085" y="371" type="curve" smooth="yes"/>
      <point x="996" y="371"/>
      <point x="924" y="429"/>
      <point x="841" y="555" type="curve"/>
      <point x="907" y="657"/>
      <point x="989" y="739"/>
      <point x="1083" y="739" type="curve" smooth="yes"/>
      <point x="1185" y="739"/>
      <point x="1255" y="661"/>
      <point x="1255" y="553" type="curve" smooth="yes"/>
      <point x="1255" y="456"/>
      <point x="1187" y="371"/>
    </contour>
  </outline>
</glyph>
<glyph name="approxequal" format="1">
  <advance width="1273"/>
  <unicode hex="2248"/>
  <outline>
    <contour>
      <point x="306" y="204" type="line"/>
      <point x="324" y="293"/>
      <point x="368" y="351"/>
      <point x="450" y="351" type="curve" smooth="yes"/>
      <point x="487" y="351"/>
      <point x="536" y="327"/>
      <point x="604" y="288" type="curve" smooth="yes"/>
      <point x="698" y="235"/>
      <point x="775" y="210"/>
      <point x="839" y="210" type="curve" smooth="yes"/>
      <point x="1000" y="210"/>
      <point x="1101" y="325"/>
      <point x="1123" y="496" type="curve"/>
      <point x="968" y="518" type="line"/>
      <point x="958" y="433"/>
      <point x="914" y="393"/>
      <point x="838" y="382" type="curve" smooth="yes"/>
      <point x="794" y="375"/>
      <point x="734" y="402"/>
      <point x="662" y="444" type="curve" smooth="yes"/>
      <point x="592" y="484"/>
      <point x="519" y="515"/>
      <point x="441" y="515" type="curve" smooth="yes"/>
      <point x="280" y="515"/>
      <point x="175" y="401"/>
      <point x="151" y="224" type="curve"/>
    </contour>
    <contour>
      <point x="306" y="594" type="line"/>
      <point x="324" y="681"/>
      <point x="368" y="736"/>
      <point x="450" y="736" type="curve" smooth="yes"/>
      <point x="489" y="736"/>
      <point x="538" y="712"/>
      <point x="604" y="675" type="curve" smooth="yes"/>
      <point x="698" y="622"/>
      <point x="773" y="596"/>
      <point x="839" y="596" type="curve" smooth="yes"/>
      <point x="998" y="596"/>
      <point x="1101" y="713"/>
      <point x="1123" y="884" type="curve"/>
      <point x="968" y="905" type="line"/>
      <point x="957" y="820"/>
      <point x="912" y="768"/>
      <point x="830" y="766" type="curve" smooth="yes"/>
      <point x="786" y="764"/>
      <point x="730" y="789"/>
      <point x="662" y="830" type="curve"/>
      <point x="593" y="871"/>
      <point x="520" y="901"/>
      <point x="443" y="901" type="curve" smooth="yes"/>
      <point x="281" y="901"/>
      <point x="175" y="789"/>
      <point x="151" y="615" type="curve"/>
    </contour>
  </outline>
</glyph>
<glyph name="notequal" format="1">
  <advance width="1273"/>
  <unicode hex="2260"/>
  <outline>
    <contour>
      <point x="279" y="51" type="line"/>
      <point x="470" y="39" type="line"/>
      <point x="591" y="272" type="line"/>
      <point x="1091" y="272" type="line"/>
      <point x="1091" y="437" type="line"/>
      <point x="672" y="437" type="line"/>
      <point x="791" y="665" type="line"/>
      <point x="1091" y="665" type="line"/>
      <point x="1091" y="831" type="line"/>
      <point x="874" y="831" type="line"/>
      <point x="994" y="1060" type="line"/>
      <point x="802" y="1073" type="line"/>
      <point x="679" y="831" type="line"/>
      <point x="184" y="831" type="line"/>
      <point x="184" y="665" type="line"/>
      <point x="595" y="665" type="line"/>
      <point x="478" y="437" type="line"/>
      <point x="184" y="437" type="line"/>
      <point x="184" y="272" type="line"/>
      <point x="395" y="272" type="line"/>
    </contour>
  </outline>
</glyph>
<glyph name="lessequal" format="1">
  <advance width="1499"/>
  <unicode hex="2264"/>
  <outline>
    <contour>
      <point x="1296" y="268" type="line"/>
      <point x="1296" y="517" type="line"/>
      <point x="595" y="725" type="line"/>
      <point x="1296" y="935" type="line"/>
      <point x="1296" y="1183" type="line"/>
      <point x="246" y="830" type="line"/>
      <point x="246" y="623" type="line"/>
    </contour>
    <contour>
      <point x="246" y="1" type="line"/>
      <point x="1296" y="1" type="line"/>
      <point x="1296" y="179" type="line"/>
      <point x="246" y="179" type="line"/>
    </contour>
  </outline>
</glyph>
<glyph name="lozenge" format="1">
  <advance width="1131"/>
  <unicode hex="25CA"/>
  <outline>
    <contour>
      <point x="450" y="-30" type="line"/>
      <point x="673" y="-30" type="line"/>
      <point x="1062" y="673" type="line"/>
      <point x="677" y="1377" type="line"/>
      <point x="454" y="1377" type="line"/>
      <point x="69" y="672" type="line"/>
    </contour>
    <contour>
      <point x="564" y="177" type="line"/>
      <point x="306" y="674" type="line"/>
      <point x="568" y="1169" type="line"/>
      <point x="826" y="671" type="line"/>
    </contour>
  </outline>
</glyph>
<glyph name="dblgravecmb" format="1">
  <advance width="840"/>
  <outline>
    <contour>
      <point x="62.0" y="1169.0" type="line"/>
      <point x="297.0" y="1169.0" type="line"/>
      <point x="153" y="1516" type="line"/>
      <point x="-178" y="1516" type="line"/>
    </contour>
    <contour>
      <point x="506.0" y="1169.0" type="line"/>
      <point x="740.0" y="1169.0" type="line"/>
      <point x="597" y="1516" type="line"/>
      <point x="264" y="1516" type="line"/>
    </contour>
  </outline>
</glyph>
<glyph name="f_i" format="1">
  <advance width="1288"/>
  <outline>
    <contour>
      <point x="152" y="0" type="line"/>
      <point x="489" y="0" type="line"/>
      <point x="489" y="813" type="line"/>
      <point x="832" y="813" type="line"/>
      <point x="832" y="0" type="line"/>
      <point x="1171" y="0" type="line"/>
      <point x="1171" y="1036" type="line"/>
      <point x="481" y="1036" type="line"/>
      <point x="481" y="1171"/>
      <point x="526" y="1200"/>
      <point x="608" y="1200" type="curve" smooth="yes"/>
      <point x="645" y="1200"/>
      <point x="670" y="1195"/>
      <point x="723" y="1190" type="curve"/>
      <point x="723" y="1430" type="line"/>
      <point x="667" y="1436"/>
      <point x="616" y="1443"/>
      <point x="542" y="1443" type="curve" smooth="yes"/>
      <point x="274" y="1443"/>
      <point x="152" y="1327"/>
      <point x="152" y="1076" type="curve" smooth="yes"/>
      <point x="152" y="1036" type="line"/>
      <point x="22" y="1036" type="line"/>
      <point x="22" y="813" type="line"/>
      <point x="152" y="813" type="line"/>
    </contour>
    <contour>
      <point x="1001" y="1177" type="curve" smooth="yes"/>
      <point x="1132" y="1177"/>
      <point x="1197" y="1270"/>
      <point x="1197" y="1364" type="curve" smooth="yes"/>
      <point x="1197" y="1458"/>
      <point x="1132" y="1554"/>
      <point x="1001" y="1554" type="curve" smooth="yes"/>
      <point x="870" y="1554"/>
      <point x="805" y="1459"/>
      <point x="805" y="1365" type="curve" smooth="yes"/>
      <point x="805" y="1271"/>
      <point x="870" y="1177"/>
    </contour>
  </outline>
</glyph>
<glyph name="one.superior" format="1">
  <advance width="601"/>
  <outline>
    <contour>
      <point x="97" y="555" type="line"/>
      <point x="542" y="555" type="line"/>
      <point x="542" y="708" type="line"/>
      <point x="424" y="708" type="line"/>
      <point x="424" y="1379" type="line"/>
      <point x="231" y="1379" type="line"/>
      <point x="215" y="1313"/>
      <point x="153" y="1287"/>
      <point x="56" y="1276" type="curve"/>
      <point x="56" y="1149" type="line"/>
      <point x="218" y="1177" type="line"/>
      <point x="218" y="708" type="line"/>
      <point x="97" y="708" type="line"/>
    </contour>
  </outline>
</glyph>
